<svg width="126" height="126" viewBox="0 0 126 126" fill="none" xmlns="http://www.w3.org/2000/svg">
<rect width="126" height="126" rx="10" fill="#1F2233"/>
<path d="M92 38.1149L86.7161 97.4046L62.9645 104L39.2784 97.4139L34 38.1149H92Z" fill="#264DE4"/>
<path d="M82.1924 93.6293L86.7079 42.9635H63V98.9588L82.1924 93.6293Z" fill="#2965F1"/>
<path d="M46.1005 64.9566L46.7513 72.2293H63V64.9566H46.1005Z" fill="#EBEBEB"/>
<path d="M63 50.2363H62.9749H44.7929L45.4529 57.5092H63V50.2363Z" fill="#EBEBEB"/>
<path d="M63 91.4116V83.8448L62.9682 83.8533L54.8816 81.6662L54.3646 75.8658H50.4351H47.0757L48.093 87.2851L62.9666 91.4209L63 91.4116Z" fill="#EBEBEB"/>
<path d="M47.6499 22H56.4442V25.6836H51.3275V29.3672H56.4442V33.0508H47.6499V22Z" fill="white"/>
<path d="M58.2031 22H66.9974V25.2031H61.8807V25.8438H66.9974V33.2109H58.2031V29.8477H63.3198V29.207H58.2031V22Z" fill="white"/>
<path d="M68.7563 22H77.5506V25.2031H72.4339V25.8438H77.5506V33.2109H68.7563V29.8477H73.873V29.207H68.7563V22Z" fill="white"/>
<path d="M71.916 72.2293L71.0732 81.6616L62.9749 83.8509V91.4173L77.8603 87.2851L77.9695 86.0564L79.6758 66.9096L79.8529 64.9566L81.1638 50.2363H62.9749V57.5092H73.2064L72.5457 64.9566H62.9749V72.2293H71.916Z" fill="white"/>
</svg>
