<svg width="126" height="126" viewBox="0 0 126 126" fill="none" xmlns="http://www.w3.org/2000/svg">
<g clip-path="url(#clip0_201_21)">
<path d="M116 0H10C4.47715 0 0 4.47715 0 10V116C0 121.523 4.47715 126 10 126H116C121.523 126 126 121.523 126 116V10C126 4.47715 121.523 0 116 0Z" fill="#1F2233"/>
<path d="M64.6627 31.5833C63.8914 31.5863 63.1518 31.8907 62.6017 32.4315L62.5725 32.454L43.245 43.6253L62.5185 62.8988V62.9123L85.6935 86.0872L90.1102 78.1313L74.178 39.888L66.753 32.463C66.4801 32.1871 66.1554 31.9679 65.7974 31.818C65.4394 31.6682 65.0553 31.5907 64.6672 31.59L64.6627 31.5833Z" fill="#66C3FA"/>
<path d="M43.3125 43.5375L32.148 62.8448L32.1255 62.874C31.5839 63.4264 31.2788 64.1681 31.275 64.9418C31.2755 65.3287 31.3526 65.7116 31.5021 66.0685C31.6516 66.4254 31.8703 66.749 32.1458 67.0208L41.4 76.275L77.589 90.5108L85.77 85.9658L85.545 85.7408H85.4888L62.802 63.0158H62.775L43.3125 43.5375Z" fill="#215896"/>
<path d="M43.182 43.5645L62.901 63.3038H62.9303L85.626 86.0288L94.2638 84.3818L94.275 58.815L85.1535 49.8757C82.8792 47.8462 80.0292 46.5753 76.9995 46.2397V46.1407L43.182 43.5645Z" fill="#235997"/>
<path d="M43.326 43.6747L63.054 63.4027V63.432L85.761 86.139L84.1095 94.7767H58.5496L49.6148 85.6507C47.5865 83.3752 46.3173 80.5244 45.9833 77.4945H45.8843L43.326 43.6747Z" fill="#58B6F0"/>
</g>
<defs>
<clipPath id="clip0_201_21">
<rect width="126" height="126" fill="white"/>
</clipPath>
</defs>
</svg>
