<svg width="126" height="126" viewBox="0 0 126 126" fill="none" xmlns="http://www.w3.org/2000/svg">
<rect width="126" height="126" rx="10" fill="#1F2233"/>
<path d="M39.3117 86.6661L25.6324 72.9869C24.0107 71.3181 23 68.9677 23 66.6702C23 65.6067 23.5993 63.9438 24.0518 62.986L36.6793 36.6793L39.3117 86.6661Z" fill="#01579B"/>
<path d="M86.1432 39.3117L72.4639 25.6324C71.2711 24.4337 68.7797 23 66.6761 23C64.8663 23 63.0917 23.3643 61.94 24.0518L36.6851 36.6793L86.1432 39.3117Z" fill="#40C4FF"/>
<path d="M55.6234 102.978H88.7756V88.7697L64.0436 80.8783L41.4211 88.7697L55.6234 102.978Z" fill="#40C4FF"/>
<path d="M36.6851 79.3035C36.6851 83.5225 37.214 84.5625 39.3176 86.672L41.4212 88.7756H88.7756L65.6243 62.4689L36.6851 36.6851V79.3035Z" fill="#29B6F6"/>
<path d="M78.7747 36.6793H36.6793L88.7697 88.7697H102.978V56.1463L86.1432 39.3117C83.781 36.9378 81.6774 36.6793 78.7747 36.6793Z" fill="#01579B"/>
<path opacity="0.2" d="M39.8405 87.195C37.7369 85.0796 37.2081 82.9995 37.2081 79.3035V37.2081L36.6793 36.6793V79.2977C36.6851 82.9995 36.6851 84.0219 39.8405 87.195L41.4212 88.7756L39.8405 87.195Z" fill="white"/>
<path opacity="0.2" d="M102.455 55.6234V88.2468H88.2467L88.7756 88.7697H102.984V56.1522L102.455 55.6234Z" fill="#263238"/>
<path opacity="0.2" d="M86.1432 39.3117C83.5342 36.7028 81.3954 36.6793 78.2517 36.6793H36.6851L37.214 37.2081H78.2576C79.8206 37.2081 83.7869 36.9437 86.1432 39.3117Z" fill="white"/>
<path opacity="0.2" d="M102.455 55.6234L86.1432 39.3117L72.4639 25.6324C71.2711 24.4337 68.7797 23 66.6761 23C64.8663 23 63.0917 23.3643 61.94 24.0518L36.6851 36.6793L24.0577 62.986C23.6052 63.9438 23.0059 65.6067 23.0059 66.6702C23.0059 68.9677 24.0165 71.3181 25.6383 72.9869L38.2481 85.5027C38.5478 85.8729 38.9004 86.2489 39.3234 86.6661L39.8523 87.195L41.4329 88.7756L55.1122 102.455L55.641 102.984H88.2644H88.7932V88.7756H103.001V88.7403V56.1522L102.455 55.6234Z" fill="url(#paint0_radial_302_55)"/>
<path fill-rule="evenodd" clip-rule="evenodd" d="M126 105V116C126 121.523 121.523 126 116 126H99V115C99 109.477 103.477 105 109 105H126Z" fill="#0094FF"/>
<path d="M72.58 114.704C73.052 114.792 73.44 115.028 73.744 115.412C74.048 115.796 74.2 116.236 74.2 116.732C74.2 117.18 74.088 117.576 73.864 117.92C73.648 118.256 73.332 118.52 72.916 118.712C72.5 118.904 72.008 119 71.44 119H67.828V110.624H71.284C71.852 110.624 72.34 110.716 72.748 110.9C73.164 111.084 73.476 111.34 73.684 111.668C73.9 111.996 74.008 112.368 74.008 112.784C74.008 113.272 73.876 113.68 73.612 114.008C73.356 114.336 73.012 114.568 72.58 114.704ZM69.508 114.08H71.044C71.444 114.08 71.752 113.992 71.968 113.816C72.184 113.632 72.292 113.372 72.292 113.036C72.292 112.7 72.184 112.44 71.968 112.256C71.752 112.072 71.444 111.98 71.044 111.98H69.508V114.08ZM71.2 117.632C71.608 117.632 71.924 117.536 72.148 117.344C72.38 117.152 72.496 116.88 72.496 116.528C72.496 116.168 72.376 115.888 72.136 115.688C71.896 115.48 71.572 115.376 71.164 115.376H69.508V117.632H71.2ZM81.7189 115.532C81.7189 115.772 81.7029 115.988 81.6709 116.18H76.8109C76.8509 116.66 77.0189 117.036 77.3149 117.308C77.6109 117.58 77.9749 117.716 78.4069 117.716C79.0309 117.716 79.4749 117.448 79.7389 116.912H81.5509C81.3589 117.552 80.9909 118.08 80.4469 118.496C79.9029 118.904 79.2349 119.108 78.4429 119.108C77.8029 119.108 77.2269 118.968 76.7149 118.688C76.2109 118.4 75.8149 117.996 75.5269 117.476C75.2469 116.956 75.1069 116.356 75.1069 115.676C75.1069 114.988 75.2469 114.384 75.5269 113.864C75.8069 113.344 76.1989 112.944 76.7029 112.664C77.2069 112.384 77.7869 112.244 78.4429 112.244C79.0749 112.244 79.6389 112.38 80.1349 112.652C80.6389 112.924 81.0269 113.312 81.2989 113.816C81.5789 114.312 81.7189 114.884 81.7189 115.532ZM79.9789 115.052C79.9709 114.62 79.8149 114.276 79.5109 114.02C79.2069 113.756 78.8349 113.624 78.3949 113.624C77.9789 113.624 77.6269 113.752 77.3389 114.008C77.0589 114.256 76.8869 114.604 76.8229 115.052H79.9789ZM85.5492 112.244C86.0452 112.244 86.4812 112.344 86.8572 112.544C87.2332 112.736 87.5292 112.988 87.7452 113.3V112.352H89.4372V119.048C89.4372 119.664 89.3132 120.212 89.0652 120.692C88.8172 121.18 88.4452 121.564 87.9492 121.844C87.4532 122.132 86.8532 122.276 86.1492 122.276C85.2052 122.276 84.4292 122.056 83.8212 121.616C83.2212 121.176 82.8812 120.576 82.8012 119.816H84.4692C84.5572 120.12 84.7452 120.36 85.0332 120.536C85.3292 120.72 85.6852 120.812 86.1012 120.812C86.5892 120.812 86.9852 120.664 87.2892 120.368C87.5932 120.08 87.7452 119.64 87.7452 119.048V118.016C87.5292 118.328 87.2292 118.588 86.8452 118.796C86.4692 119.004 86.0372 119.108 85.5492 119.108C84.9892 119.108 84.4772 118.964 84.0132 118.676C83.5492 118.388 83.1812 117.984 82.9092 117.464C82.6452 116.936 82.5132 116.332 82.5132 115.652C82.5132 114.98 82.6452 114.384 82.9092 113.864C83.1812 113.344 83.5452 112.944 84.0012 112.664C84.4652 112.384 84.9812 112.244 85.5492 112.244ZM87.7452 115.676C87.7452 115.268 87.6652 114.92 87.5052 114.632C87.3452 114.336 87.1292 114.112 86.8572 113.96C86.5852 113.8 86.2932 113.72 85.9812 113.72C85.6692 113.72 85.3812 113.796 85.1172 113.948C84.8532 114.1 84.6372 114.324 84.4692 114.62C84.3092 114.908 84.2292 115.252 84.2292 115.652C84.2292 116.052 84.3092 116.404 84.4692 116.708C84.6372 117.004 84.8532 117.232 85.1172 117.392C85.3892 117.552 85.6772 117.632 85.9812 117.632C86.2932 117.632 86.5852 117.556 86.8572 117.404C87.1292 117.244 87.3452 117.02 87.5052 116.732C87.6652 116.436 87.7452 116.084 87.7452 115.676ZM91.93 111.56C91.634 111.56 91.386 111.468 91.186 111.284C90.994 111.092 90.898 110.856 90.898 110.576C90.898 110.296 90.994 110.064 91.186 109.88C91.386 109.688 91.634 109.592 91.93 109.592C92.226 109.592 92.47 109.688 92.662 109.88C92.862 110.064 92.962 110.296 92.962 110.576C92.962 110.856 92.862 111.092 92.662 111.284C92.47 111.468 92.226 111.56 91.93 111.56ZM92.758 112.352V119H91.078V112.352H92.758ZM98.1018 112.256C98.8938 112.256 99.5338 112.508 100.022 113.012C100.51 113.508 100.754 114.204 100.754 115.1V119H99.0738V115.328C99.0738 114.8 98.9418 114.396 98.6778 114.116C98.4138 113.828 98.0538 113.684 97.5978 113.684C97.1338 113.684 96.7658 113.828 96.4938 114.116C96.2298 114.396 96.0978 114.8 96.0978 115.328V119H94.4178V112.352H96.0978V113.18C96.3218 112.892 96.6058 112.668 96.9498 112.508C97.3018 112.34 97.6858 112.256 98.1018 112.256ZM106.035 112.256C106.827 112.256 107.467 112.508 107.955 113.012C108.443 113.508 108.687 114.204 108.687 115.1V119H107.007V115.328C107.007 114.8 106.875 114.396 106.611 114.116C106.347 113.828 105.987 113.684 105.531 113.684C105.067 113.684 104.699 113.828 104.427 114.116C104.163 114.396 104.031 114.8 104.031 115.328V119H102.351V112.352H104.031V113.18C104.255 112.892 104.539 112.668 104.883 112.508C105.235 112.34 105.619 112.256 106.035 112.256ZM116.465 115.532C116.465 115.772 116.449 115.988 116.417 116.18H111.557C111.597 116.66 111.765 117.036 112.061 117.308C112.357 117.58 112.721 117.716 113.153 117.716C113.777 117.716 114.221 117.448 114.485 116.912H116.297C116.105 117.552 115.737 118.08 115.193 118.496C114.649 118.904 113.981 119.108 113.189 119.108C112.549 119.108 111.973 118.968 111.461 118.688C110.957 118.4 110.561 117.996 110.273 117.476C109.993 116.956 109.853 116.356 109.853 115.676C109.853 114.988 109.993 114.384 110.273 113.864C110.553 113.344 110.945 112.944 111.449 112.664C111.953 112.384 112.533 112.244 113.189 112.244C113.821 112.244 114.385 112.38 114.881 112.652C115.385 112.924 115.773 113.312 116.045 113.816C116.325 114.312 116.465 114.884 116.465 115.532ZM114.725 115.052C114.717 114.62 114.561 114.276 114.257 114.02C113.953 113.756 113.581 113.624 113.141 113.624C112.725 113.624 112.373 113.752 112.085 114.008C111.805 114.256 111.633 114.604 111.569 115.052H114.725ZM119.371 113.384C119.587 113.032 119.867 112.756 120.211 112.556C120.563 112.356 120.963 112.256 121.411 112.256V114.02H120.967C120.439 114.02 120.039 114.144 119.767 114.392C119.503 114.64 119.371 115.072 119.371 115.688V119H117.691V112.352H119.371V113.384Z" fill="white"/>
<defs>
<radialGradient id="paint0_radial_302_55" cx="0" cy="0" r="1" gradientUnits="userSpaceOnUse" gradientTransform="translate(63.0006 62.9897) scale(39.9948)">
<stop stop-color="white" stop-opacity="0.1"/>
<stop offset="1" stop-color="white" stop-opacity="0"/>
</radialGradient>
</defs>
</svg>
