<svg width="126" height="126" viewBox="0 0 126 126" fill="none" xmlns="http://www.w3.org/2000/svg">
<g clip-path="url(#clip0_201_86)">
<path d="M116 0H10C4.47715 0 0 4.47715 0 10V116C0 121.523 4.47715 126 10 126H116C121.523 126 126 121.523 126 116V10C126 4.47715 121.523 0 116 0Z" fill="#1F2233"/>
<path d="M99.2551 56.0181C99.046 55.8507 97.1512 54.4475 93.1523 54.4475C92.0938 54.4475 91.0353 54.5247 89.9899 54.7178C89.2189 49.4784 84.828 46.9295 84.632 46.8136L83.5604 46.1957L82.8548 47.1998C81.9661 48.5515 81.3258 50.032 80.9468 51.6025C80.2281 54.5891 80.6593 57.3955 82.2014 59.7899C80.3457 60.8069 77.3531 61.0644 76.752 61.0773H27.3418C26.0481 61.0773 25.0026 62.1072 25.0026 63.3816C24.9503 67.6427 25.6822 71.878 27.1588 75.8816C28.8577 80.2843 31.3929 83.5155 34.686 85.498C38.3712 87.7251 44.3694 88.9996 51.1779 88.9996C54.2488 89.0125 57.3198 88.7292 60.3386 88.1757C64.5334 87.4162 68.5714 85.9743 72.2827 83.9017C75.3406 82.151 78.098 79.9367 80.4372 77.3234C84.3445 72.9594 86.6837 68.0933 88.4217 63.7807H89.1143C93.4007 63.7807 96.0404 62.0943 97.4909 60.6782C98.458 59.7771 99.2159 58.6828 99.6994 57.4599L100 56.5716L99.2551 56.0181ZM31.9156 59.6741H38.5411C38.8547 59.6741 39.1161 59.4166 39.1161 59.1077V53.3018C39.1161 52.9928 38.8547 52.7354 38.5411 52.7225H31.9156C31.602 52.7225 31.3406 52.9799 31.3406 53.2889V59.1077C31.3406 59.4295 31.602 59.6741 31.9156 59.6741ZM41.0501 59.6741H47.6756C47.9893 59.6741 48.2506 59.4166 48.2506 59.1077V53.3018C48.2506 52.9928 47.9893 52.7354 47.6756 52.7225H41.0501C40.7234 52.7225 40.4621 52.9799 40.4621 53.3018V59.1077C40.4621 59.4295 40.7234 59.6741 41.0501 59.6741ZM50.3023 59.687H56.9278C57.2414 59.687 57.5028 59.4295 57.5028 59.1205V53.3147C57.5028 53.0057 57.2414 52.7482 56.9278 52.7354H50.3023C49.9887 52.7354 49.7273 52.9928 49.7273 53.3018V59.1205C49.7273 59.4295 49.9887 59.6741 50.3023 59.687ZM59.463 59.687H66.0885C66.4021 59.687 66.6635 59.4295 66.6765 59.1205V53.3147C66.6765 52.9928 66.4152 52.7354 66.0885 52.7354H59.463C59.1494 52.7354 58.888 52.9928 58.888 53.3018V59.1205C58.888 59.4295 59.1363 59.687 59.463 59.687ZM41.0371 51.3193H47.6626C47.9762 51.3193 48.2376 51.0618 48.2376 50.74V44.9341C48.2376 44.6251 47.9762 44.3677 47.6626 44.3677H41.0371C40.7104 44.3677 40.4621 44.6251 40.449 44.9341V50.74C40.4621 51.0618 40.7234 51.3193 41.0371 51.3193ZM50.3023 51.3193H56.9278C57.2414 51.3193 57.5028 51.0618 57.5028 50.74V44.9341C57.5028 44.6251 57.2414 44.3677 56.9278 44.3677H50.3023C49.9887 44.3677 49.7273 44.6251 49.7273 44.9341V50.74C49.7273 51.0618 49.9887 51.3193 50.3023 51.3193ZM59.463 51.3193H66.0885C66.4152 51.3193 66.6635 51.0618 66.6765 50.74V44.9341C66.6765 44.6123 66.4152 44.3677 66.0885 44.3677H59.463C59.1494 44.3677 58.888 44.6251 58.888 44.9341V50.74C58.888 51.0618 59.1363 51.3193 59.463 51.3193ZM59.463 42.9645H66.0885C66.4152 42.9645 66.6765 42.707 66.6765 42.3852V36.5664C66.6765 36.2575 66.4152 36 66.0885 36H59.463C59.1494 36 58.888 36.2575 58.888 36.5664V42.3852C58.888 42.707 59.1363 42.9645 59.463 42.9645ZM68.689 59.687H75.3145C75.6281 59.687 75.8895 59.4295 75.8895 59.1205V53.3147C75.8895 52.9928 75.6281 52.7482 75.3145 52.7354H68.689C68.3754 52.7354 68.114 52.9928 68.114 53.3018V59.1205C68.114 59.4295 68.3754 59.687 68.689 59.687Z" fill="#0091E2"/>
<path fill-rule="evenodd" clip-rule="evenodd" d="M126.172 105V116C126.172 121.523 121.695 126 116.172 126H99.172V115C99.172 109.477 103.649 105 109.172 105H126.172Z" fill="#0094FF"/>
<path d="M72.752 114.704C73.224 114.792 73.612 115.028 73.916 115.412C74.22 115.796 74.372 116.236 74.372 116.732C74.372 117.18 74.26 117.576 74.036 117.92C73.82 118.256 73.504 118.52 73.088 118.712C72.672 118.904 72.18 119 71.612 119H68V110.624H71.456C72.024 110.624 72.512 110.716 72.92 110.9C73.336 111.084 73.648 111.34 73.856 111.668C74.072 111.996 74.18 112.368 74.18 112.784C74.18 113.272 74.048 113.68 73.784 114.008C73.528 114.336 73.184 114.568 72.752 114.704ZM69.68 114.08H71.216C71.616 114.08 71.924 113.992 72.14 113.816C72.356 113.632 72.464 113.372 72.464 113.036C72.464 112.7 72.356 112.44 72.14 112.256C71.924 112.072 71.616 111.98 71.216 111.98H69.68V114.08ZM71.372 117.632C71.78 117.632 72.096 117.536 72.32 117.344C72.552 117.152 72.668 116.88 72.668 116.528C72.668 116.168 72.548 115.888 72.308 115.688C72.068 115.48 71.744 115.376 71.336 115.376H69.68V117.632H71.372ZM81.8909 115.532C81.8909 115.772 81.8749 115.988 81.8429 116.18H76.9829C77.0229 116.66 77.1909 117.036 77.4869 117.308C77.7829 117.58 78.1469 117.716 78.5789 117.716C79.2029 117.716 79.6469 117.448 79.9109 116.912H81.7229C81.5309 117.552 81.1629 118.08 80.6189 118.496C80.0749 118.904 79.4069 119.108 78.6149 119.108C77.9749 119.108 77.3989 118.968 76.8869 118.688C76.3829 118.4 75.9869 117.996 75.6989 117.476C75.4189 116.956 75.2789 116.356 75.2789 115.676C75.2789 114.988 75.4189 114.384 75.6989 113.864C75.9789 113.344 76.3709 112.944 76.8749 112.664C77.3789 112.384 77.9589 112.244 78.6149 112.244C79.2469 112.244 79.8109 112.38 80.3069 112.652C80.8109 112.924 81.1989 113.312 81.4709 113.816C81.7509 114.312 81.8909 114.884 81.8909 115.532ZM80.1509 115.052C80.1429 114.62 79.9869 114.276 79.6829 114.02C79.3789 113.756 79.0069 113.624 78.5669 113.624C78.1509 113.624 77.7989 113.752 77.5109 114.008C77.2309 114.256 77.0589 114.604 76.9949 115.052H80.1509ZM85.7212 112.244C86.2172 112.244 86.6532 112.344 87.0292 112.544C87.4052 112.736 87.7012 112.988 87.9172 113.3V112.352H89.6092V119.048C89.6092 119.664 89.4852 120.212 89.2372 120.692C88.9892 121.18 88.6172 121.564 88.1212 121.844C87.6252 122.132 87.0252 122.276 86.3212 122.276C85.3772 122.276 84.6012 122.056 83.9932 121.616C83.3932 121.176 83.0532 120.576 82.9732 119.816H84.6412C84.7292 120.12 84.9172 120.36 85.2052 120.536C85.5012 120.72 85.8572 120.812 86.2732 120.812C86.7612 120.812 87.1572 120.664 87.4612 120.368C87.7652 120.08 87.9172 119.64 87.9172 119.048V118.016C87.7012 118.328 87.4012 118.588 87.0172 118.796C86.6412 119.004 86.2092 119.108 85.7212 119.108C85.1612 119.108 84.6492 118.964 84.1852 118.676C83.7212 118.388 83.3532 117.984 83.0812 117.464C82.8172 116.936 82.6852 116.332 82.6852 115.652C82.6852 114.98 82.8172 114.384 83.0812 113.864C83.3532 113.344 83.7172 112.944 84.1732 112.664C84.6372 112.384 85.1532 112.244 85.7212 112.244ZM87.9172 115.676C87.9172 115.268 87.8372 114.92 87.6772 114.632C87.5172 114.336 87.3012 114.112 87.0292 113.96C86.7572 113.8 86.4652 113.72 86.1532 113.72C85.8412 113.72 85.5532 113.796 85.2892 113.948C85.0252 114.1 84.8092 114.324 84.6412 114.62C84.4812 114.908 84.4012 115.252 84.4012 115.652C84.4012 116.052 84.4812 116.404 84.6412 116.708C84.8092 117.004 85.0252 117.232 85.2892 117.392C85.5612 117.552 85.8492 117.632 86.1532 117.632C86.4652 117.632 86.7572 117.556 87.0292 117.404C87.3012 117.244 87.5172 117.02 87.6772 116.732C87.8372 116.436 87.9172 116.084 87.9172 115.676ZM92.102 111.56C91.806 111.56 91.558 111.468 91.358 111.284C91.166 111.092 91.07 110.856 91.07 110.576C91.07 110.296 91.166 110.064 91.358 109.88C91.558 109.688 91.806 109.592 92.102 109.592C92.398 109.592 92.642 109.688 92.834 109.88C93.034 110.064 93.134 110.296 93.134 110.576C93.134 110.856 93.034 111.092 92.834 111.284C92.642 111.468 92.398 111.56 92.102 111.56ZM92.93 112.352V119H91.25V112.352H92.93ZM98.2738 112.256C99.0658 112.256 99.7058 112.508 100.194 113.012C100.682 113.508 100.926 114.204 100.926 115.1V119H99.2458V115.328C99.2458 114.8 99.1138 114.396 98.8498 114.116C98.5858 113.828 98.2258 113.684 97.7698 113.684C97.3058 113.684 96.9378 113.828 96.6658 114.116C96.4018 114.396 96.2698 114.8 96.2698 115.328V119H94.5898V112.352H96.2698V113.18C96.4938 112.892 96.7778 112.668 97.1218 112.508C97.4738 112.34 97.8578 112.256 98.2738 112.256ZM106.207 112.256C106.999 112.256 107.639 112.508 108.127 113.012C108.615 113.508 108.859 114.204 108.859 115.1V119H107.179V115.328C107.179 114.8 107.047 114.396 106.783 114.116C106.519 113.828 106.159 113.684 105.703 113.684C105.239 113.684 104.871 113.828 104.599 114.116C104.335 114.396 104.203 114.8 104.203 115.328V119H102.523V112.352H104.203V113.18C104.427 112.892 104.711 112.668 105.055 112.508C105.407 112.34 105.791 112.256 106.207 112.256ZM116.637 115.532C116.637 115.772 116.621 115.988 116.589 116.18H111.729C111.769 116.66 111.937 117.036 112.233 117.308C112.529 117.58 112.893 117.716 113.325 117.716C113.949 117.716 114.393 117.448 114.657 116.912H116.469C116.277 117.552 115.909 118.08 115.365 118.496C114.821 118.904 114.153 119.108 113.361 119.108C112.721 119.108 112.145 118.968 111.633 118.688C111.129 118.4 110.733 117.996 110.445 117.476C110.165 116.956 110.025 116.356 110.025 115.676C110.025 114.988 110.165 114.384 110.445 113.864C110.725 113.344 111.117 112.944 111.621 112.664C112.125 112.384 112.705 112.244 113.361 112.244C113.993 112.244 114.557 112.38 115.053 112.652C115.557 112.924 115.945 113.312 116.217 113.816C116.497 114.312 116.637 114.884 116.637 115.532ZM114.897 115.052C114.889 114.62 114.733 114.276 114.429 114.02C114.125 113.756 113.753 113.624 113.313 113.624C112.897 113.624 112.545 113.752 112.257 114.008C111.977 114.256 111.805 114.604 111.741 115.052H114.897ZM119.543 113.384C119.759 113.032 120.039 112.756 120.383 112.556C120.735 112.356 121.135 112.256 121.583 112.256V114.02H121.139C120.611 114.02 120.211 114.144 119.939 114.392C119.675 114.64 119.543 115.072 119.543 115.688V119H117.863V112.352H119.543V113.384Z" fill="white"/>
</g>
<defs>
<clipPath id="clip0_201_86">
<rect width="126" height="126" fill="white"/>
</clipPath>
</defs>
</svg>
