<svg width="126" height="126" viewBox="0 0 126 126" fill="none" xmlns="http://www.w3.org/2000/svg">
<rect width="126" height="126" rx="10" fill="#1F2233"/>
<path d="M20.5597 69.4944V59.8877H32.5096V59.3258H20.5597V50.5618H33.2652V50H20V70.0561H33.377V69.4944H20.5598H20.5597ZM44.1517 55.6179L39.1983 62.1629L34.3566 55.6181H33.629L38.8624 62.5844L33.1251 70.056H33.7968L39.198 63.0054L44.6272 70.056H45.3268L39.5618 62.584L44.8231 55.6177H44.1516L44.1517 55.6179ZM47.0062 75V66.0114H47.0621C47.3981 67.3222 48.0604 68.3756 49.0492 69.1715C50.038 69.9673 51.2973 70.3653 52.8271 70.3653C53.816 70.3653 54.6929 70.164 55.4579 69.7614C56.2228 69.3588 56.8618 68.8111 57.3749 68.1182C57.8879 67.4252 58.2797 66.62 58.5503 65.7024C58.8208 64.7849 58.9562 63.8203 58.9562 62.8093C58.9562 61.723 58.8161 60.7211 58.5362 59.8036C58.2564 58.8859 57.8506 58.09 57.319 57.416C56.7872 56.7417 56.1435 56.2173 55.3878 55.843C54.6323 55.4684 53.7787 55.281 52.8271 55.281C52.0995 55.281 51.4233 55.3888 50.7982 55.6041C50.1732 55.8195 49.6183 56.1237 49.1332 56.517C48.6452 56.9134 48.2205 57.3822 47.8737 57.9074C47.5193 58.4412 47.2487 59.0264 47.0621 59.6631H47.0062V55.6179H46.4465V75H47.0062V75ZM52.8271 69.8314C51.0735 69.8314 49.6648 69.2275 48.6014 68.0197C47.538 66.8119 47.0062 65.0749 47.0062 62.8089C47.0062 61.8726 47.1369 60.9831 47.3981 60.1404C47.6592 59.2978 48.037 58.558 48.5313 57.9214C49.0258 57.2846 49.6369 56.779 50.3644 56.4046C51.092 56.0299 51.9131 55.8426 52.8271 55.8426C53.76 55.8426 54.5764 56.0299 55.276 56.4046C55.9755 56.779 56.554 57.2893 57.0111 57.9354C57.4681 58.5814 57.8133 59.3212 58.0466 60.1544C58.2797 60.9878 58.3963 61.8726 58.3963 62.8089C58.3963 63.6518 58.2891 64.4898 58.0745 65.323C57.86 66.1564 57.5288 66.9055 57.0809 67.5704C56.6333 68.235 56.0597 68.778 55.3599 69.1995C54.6602 69.6208 53.816 69.8314 52.8271 69.8314V69.8314ZM62.0345 70.0561V61.882C62.0345 61.0955 62.1464 60.3276 62.3705 59.5787C62.5942 58.8296 62.9394 58.1694 63.4058 57.5984C63.8723 57.0272 64.4645 56.5777 65.1829 56.25C65.9012 55.9222 66.7548 55.7865 67.7436 55.8426V55.2809C66.8853 55.2623 66.1345 55.3557 65.4908 55.5618C64.847 55.7678 64.292 56.0487 63.8256 56.4046C63.3591 56.7603 62.9861 57.1769 62.7062 57.6545C62.4266 58.1314 62.2191 58.6473 62.0905 59.1854H62.0345V55.6179H61.4748V70.0563H62.0345V70.0561ZM68.4432 62.9494H80.477C80.5144 61.9569 80.4165 61.002 80.1832 60.0843C79.9501 59.1666 79.5768 58.352 79.0639 57.6405C78.5507 56.9289 77.8884 56.3577 77.0768 55.9269C76.2652 55.4962 75.2997 55.2809 74.1803 55.2809C73.378 55.2809 72.5944 55.4495 71.8294 55.7867C71.0645 56.1237 70.3928 56.6151 69.8145 57.2612C69.2362 57.9072 68.7697 58.6985 68.4153 59.635C68.0609 60.5712 67.8835 61.6386 67.8835 62.8371C67.8835 63.9045 68.0048 64.9017 68.2473 65.8286C68.4899 66.7556 68.8629 67.5609 69.3667 68.2444C69.8706 68.9279 70.519 69.457 71.3118 69.8314C72.1046 70.206 73.0608 70.3839 74.1803 70.3652C75.8221 70.3652 77.2028 69.9015 78.3221 68.9748C79.4416 68.0477 80.1039 66.7416 80.3092 65.0561H79.7495C79.507 66.648 78.8865 67.8418 77.8884 68.6376C76.8902 69.4335 75.6356 69.8314 74.1242 69.8314C73.0981 69.8314 72.2306 69.6535 71.5216 69.2978C70.8127 68.9421 70.2342 68.455 69.7864 67.8371C69.3388 67.219 69.0076 66.4934 68.7931 65.66C68.5784 64.8269 68.4618 63.9232 68.4432 62.9494ZM79.9173 62.3876H68.4434C68.4991 61.3764 68.6857 60.4682 69.0029 59.663C69.3202 58.8576 69.7352 58.1694 70.2484 57.5984C70.7613 57.0272 71.3585 56.5919 72.0394 56.2921C72.7204 55.9925 73.4527 55.8426 74.2363 55.8426C75.1692 55.8426 75.9899 56.0159 76.699 56.3624C77.4079 56.7089 78.0003 57.1818 78.4761 57.781C78.9518 58.3801 79.3109 59.0778 79.5535 59.8736C79.796 60.6695 79.9173 61.5076 79.9173 62.3876ZM92.0912 59.8877H92.6509C92.6509 58.2771 92.1844 57.1068 91.2517 56.3764C90.3186 55.6461 89.0499 55.2809 87.4455 55.2809C86.5499 55.2809 85.7944 55.3933 85.1786 55.6181C84.563 55.8426 84.0592 56.133 83.6674 56.4887C83.2757 56.8444 82.9958 57.2378 82.8279 57.6685C82.6599 58.0993 82.5759 58.5113 82.5759 58.9045C82.5759 59.691 82.7158 60.3183 82.9958 60.7865C83.2757 61.2547 83.7141 61.6199 84.311 61.882C84.7216 62.0692 85.1878 62.2378 85.7104 62.3878C86.2328 62.5375 86.8391 62.6967 87.5295 62.8651C88.1451 63.0151 88.7515 63.1649 89.3486 63.3146C89.9455 63.4644 90.4726 63.6657 90.9297 63.9185C91.3869 64.1714 91.7599 64.4944 92.0492 64.8877C92.3383 65.2809 92.4829 65.7959 92.4829 66.4325C92.4829 67.0506 92.3384 67.5749 92.0492 68.0055C91.7624 68.434 91.385 68.7938 90.9438 69.0591C90.496 69.3305 89.9968 69.5271 89.4465 69.6488C88.8961 69.7705 88.3598 69.8314 87.8374 69.8314C86.1395 69.8314 84.8381 69.4522 83.9333 68.6939C83.0284 67.9354 82.5761 66.7416 82.5761 65.1123H82.0162C82.0162 66.9289 82.506 68.2584 83.4855 69.1012C84.4651 69.9439 85.9156 70.3652 87.8374 70.3652C88.453 70.3652 89.0733 70.2949 89.6985 70.1544C90.3233 70.014 90.8831 69.7847 91.3775 69.4662C91.8676 69.1523 92.2793 68.7295 92.5808 68.2304C92.8887 67.7247 93.0427 67.1068 93.0427 66.3764C93.0427 65.6835 92.9073 65.1217 92.6369 64.691C92.3663 64.2604 92.0119 63.9045 91.5733 63.6236C91.1349 63.3427 90.6406 63.1227 90.0902 62.9635C89.5366 62.8035 88.9815 62.6489 88.4249 62.4999C87.7399 62.3195 87.0543 62.1417 86.368 61.9663C85.7804 61.8164 85.2347 61.6386 84.731 61.4325C84.2459 61.2265 83.8587 60.9317 83.5695 60.5478C83.2802 60.1639 83.1358 59.6161 83.1358 58.9045C83.1358 58.7735 83.173 58.5393 83.2476 58.2023C83.3222 57.8651 83.4996 57.5234 83.7794 57.1769C84.0592 56.8306 84.4882 56.5216 85.0667 56.25C85.645 55.9785 86.438 55.8426 87.4455 55.8426C88.1359 55.8426 88.7654 55.9177 89.3345 56.0674C89.9036 56.2173 90.3934 56.456 90.8037 56.7837C91.2142 57.1115 91.5313 57.5281 91.7552 58.0337C91.9791 58.5395 92.0912 59.1574 92.0912 59.8877V59.8877ZM105.048 59.8877H105.608C105.608 58.2771 105.142 57.1068 104.209 56.3764C103.276 55.6461 102.007 55.2809 100.403 55.2809C99.5073 55.2809 98.7516 55.3933 98.136 55.6181C97.5203 55.8426 97.0165 56.133 96.6248 56.4887C96.233 56.8444 95.9531 57.2378 95.7851 57.6685C95.6172 58.0993 95.5334 58.5113 95.5334 58.9045C95.5334 59.691 95.6733 60.3183 95.9533 60.7865C96.233 61.2547 96.6715 61.6199 97.2685 61.882C97.679 62.0692 98.1453 62.2378 98.6677 62.3878C99.19 62.5375 99.7964 62.6967 100.487 62.8651C101.103 63.0151 101.709 63.1649 102.306 63.3146C102.903 63.4644 103.43 63.6657 103.887 63.9185C104.344 64.1714 104.717 64.4944 105.006 64.8877C105.296 65.2809 105.44 65.7959 105.44 66.4325C105.44 67.0506 105.296 67.5749 105.006 68.0055C104.72 68.434 104.342 68.7938 103.901 69.0591C103.453 69.3305 102.954 69.5271 102.404 69.6488C101.854 69.7705 101.317 69.8314 100.795 69.8314C99.0968 69.8314 97.7956 69.4522 96.8907 68.6939C95.9857 67.9354 95.5334 66.7416 95.5334 65.1123H94.9737C94.9737 66.9289 95.4633 68.2584 96.4429 69.1012C97.4223 69.9439 98.8729 70.3652 100.795 70.3652C101.41 70.3652 102.031 70.2949 102.656 70.1544C103.281 70.014 103.84 69.7847 104.335 69.4662C104.825 69.1523 105.237 68.7295 105.538 68.2304C105.846 67.7247 106 67.1068 106 66.3764C106 65.6835 105.865 65.1217 105.594 64.691C105.324 64.2604 104.969 63.9045 104.531 63.6236C104.092 63.3427 103.598 63.1227 103.048 62.9635C102.494 62.8035 101.939 62.6489 101.382 62.4999C100.697 62.3195 100.012 62.1417 99.3254 61.9663C98.7377 61.8164 98.192 61.6386 97.6882 61.4325C97.2031 61.2265 96.816 60.9317 96.5269 60.5478C96.2377 60.1639 96.093 59.6161 96.093 58.9045C96.093 58.7735 96.1303 58.5393 96.2051 58.2023C96.2796 57.8651 96.457 57.5234 96.7367 57.1769C97.0165 56.8306 97.4457 56.5216 98.024 56.25C98.6025 55.9785 99.3953 55.8426 100.403 55.8426C101.093 55.8426 101.723 55.9177 102.292 56.0674C102.861 56.2173 103.351 56.456 103.761 56.7837C104.172 57.1115 104.489 57.5281 104.713 58.0337C104.937 58.5395 105.049 59.1574 105.049 59.8877H105.048Z" fill="white"/>
</svg>
