<svg width="126" height="126" viewBox="0 0 126 126" fill="none" xmlns="http://www.w3.org/2000/svg">
<g clip-path="url(#clip0_201_78)">
<path d="M116 0H10C4.47715 0 0 4.47715 0 10V116C0 121.523 4.47715 126 10 126H116C121.523 126 126 121.523 126 116V10C126 4.47715 121.523 0 116 0Z" fill="#1F2233"/>
<path d="M95 80.59C92.672 81.182 91.232 80.616 89.94 78.676L80.752 65.964L79.424 64.204L68.694 78.718C67.468 80.464 66.182 81.224 63.894 80.606L77.634 62.162L64.842 45.502C67.042 45.074 68.562 45.292 69.912 47.262L79.442 60.132L89.042 47.332C90.272 45.586 91.594 44.922 93.802 45.566L88.842 52.142L82.122 60.892C81.322 61.892 81.432 62.576 82.168 63.542L95 80.59ZM31.016 61.854L32.14 56.326C35.2 45.386 47.74 40.84 56.388 47.6C61.442 51.576 62.698 57.2 62.448 63.5H33.96C33.532 74.84 41.694 81.684 52.1 78.192C55.75 76.966 57.9 74.108 58.976 70.532C59.522 68.74 60.426 68.46 62.11 68.972C61.25 73.444 59.31 77.18 55.21 79.518C49.084 83.018 40.34 81.886 35.74 77.022C33 74.2 31.868 70.624 31.36 66.8C31.28 66.168 31.12 65.566 31 64.96C31.0107 63.9253 31.016 62.8907 31.016 61.856V61.854ZM34.012 61.094H59.756C59.588 52.894 54.482 47.07 47.504 47.02C39.844 46.96 34.344 52.646 34.012 61.094Z" fill="white"/>
</g>
<defs>
<clipPath id="clip0_201_78">
<rect width="126" height="126" fill="white"/>
</clipPath>
</defs>
</svg>
