<svg width="126" height="126" viewBox="0 0 126 126" fill="none" xmlns="http://www.w3.org/2000/svg">
<rect width="126" height="126" rx="10" fill="#1F2233"/>
<path d="M48.75 104.436C56.34 104.436 62.5 98.2806 62.5 90.6965V76.9572H48.75C41.16 76.9572 35 83.1124 35 90.6965C35 98.2806 41.16 104.436 48.75 104.436Z" fill="#0ACF83"/>
<path d="M35 63.2179C35 55.6338 41.16 49.4786 48.75 49.4786H62.5V76.9572H48.75C41.16 76.9572 35 70.802 35 63.2179Z" fill="#A259FF"/>
<path d="M35 35.7393C35 28.1552 41.16 22 48.75 22H62.5V49.4786H48.75C41.16 49.4786 35 43.3234 35 35.7393Z" fill="#F24E1E"/>
<path d="M62.5 22H76.25C83.84 22 90 28.1552 90 35.7393C90 43.3234 83.84 49.4786 76.25 49.4786H62.5V22Z" fill="#FF7262"/>
<path d="M90 63.2179C90 70.802 83.84 76.9572 76.25 76.9572C68.66 76.9572 62.5 70.802 62.5 63.2179C62.5 55.6338 68.66 49.4786 76.25 49.4786C83.84 49.4786 90 55.6338 90 63.2179Z" fill="#1ABCFE"/>
</svg>
