<svg width="126" height="126" viewBox="0 0 126 126" fill="none" xmlns="http://www.w3.org/2000/svg">
<g clip-path="url(#clip0_201_6)">
<path d="M116 0H10C4.47715 0 0 4.47715 0 10V116C0 121.523 4.47715 126 10 126H116C121.523 126 126 121.523 126 116V10C126 4.47715 121.523 0 116 0Z" fill="#1F2233"/>
<g clip-path="url(#clip1_201_6)">
<path d="M66.1848 25.0003L28.0002 62.8002L39.8191 74.4999L89.8228 25.0003H66.1848Z" fill="#47C5FB"/>
<path d="M65.9186 59.8585L45.4735 80.0977L57.3368 92.0169L69.1338 80.3387L89.8227 59.8585H65.9186Z" fill="#47C5FB"/>
<path d="M57.3369 92.0169L66.3176 100.907H89.8225L69.1337 80.3387L57.3369 92.0169Z" fill="#00569E"/>
<path d="M45.3406 80.2293L57.1597 68.5292L69.1337 80.3388L57.3369 92.017L45.3406 80.2293Z" fill="#00B5F8"/>
<path d="M57.3369 92.017L67.1601 88.7902L68.1358 81.3266L57.3369 92.017Z" fill="url(#paint0_linear_201_6)" fill-opacity="0.8"/>
</g>
</g>
<defs>
<linearGradient id="paint0_linear_201_6" x1="166.583" y1="996.08" x2="2148.81" y2="1889.58" gradientUnits="userSpaceOnUse">
<stop/>
<stop offset="1" stop-opacity="0"/>
</linearGradient>
<clipPath id="clip0_201_6">
<rect width="126" height="126" fill="white"/>
</clipPath>
<clipPath id="clip1_201_6">
<rect width="62" height="76" fill="white" transform="translate(28 25)"/>
</clipPath>
</defs>
</svg>
