<svg width="126" height="126" viewBox="0 0 126 126" fill="none" xmlns="http://www.w3.org/2000/svg">
<rect width="126" height="126" rx="10" fill="#1F2233"/>
<path d="M33.6826 61.1283H25.5315C25.4305 61.1284 25.3336 61.1681 25.2622 61.2389C25.1907 61.3097 25.1506 61.4057 25.1505 61.5059V65.4559C25.1506 65.556 25.1907 65.6521 25.2621 65.723C25.3335 65.7939 25.4304 65.8338 25.5315 65.834H28.7113V70.7413C28.7113 70.7413 27.9973 70.9828 26.0233 70.9828C23.6945 70.9828 20.4412 70.1392 20.4412 63.0487C20.4412 55.9569 23.8288 55.0236 27.0092 55.0236C29.7622 55.0236 30.9482 55.5043 31.7028 55.7355C31.9399 55.8076 32.1593 55.5738 32.1593 55.365L33.0686 51.5487C33.0686 51.4512 33.0353 51.3335 32.923 51.2536C32.6166 51.037 30.7468 50 26.0233 50C20.5817 50 15 52.2948 15 63.3252C15 74.3564 21.3907 76 26.7759 76C31.2348 76 33.9397 74.1114 33.9397 74.1114C34.0512 74.0501 34.0633 73.8958 34.0633 73.8249V61.5057C34.0633 61.2975 33.8929 61.1283 33.6826 61.1283ZM75.6903 51.3217C75.6908 51.2721 75.6813 51.2229 75.6625 51.177C75.6437 51.131 75.6159 51.0892 75.5808 51.054C75.5456 51.0187 75.5038 50.9907 75.4577 50.9715C75.4115 50.9523 75.362 50.9423 75.312 50.9421H70.7222C70.6721 50.9423 70.6225 50.9523 70.5763 50.9714C70.5301 50.9906 70.4881 51.0186 70.4528 51.0539C70.4175 51.0891 70.3896 51.1309 70.3706 51.1768C70.3516 51.2228 70.3419 51.272 70.3421 51.3217L70.3433 60.1127H63.1894V51.3217C63.1897 51.2721 63.1802 51.2229 63.1614 51.177C63.1425 51.131 63.1147 51.0892 63.0795 51.0539C63.0443 51.0187 63.0025 50.9906 62.9563 50.9715C62.9102 50.9523 62.8607 50.9423 62.8106 50.9421H58.2212C58.1202 50.9426 58.0235 50.9829 57.9524 51.0541C57.8813 51.1253 57.8416 51.2215 57.8421 51.3217V75.1254C57.8421 75.3352 58.0124 75.5059 58.2212 75.5059H62.8106C63.0205 75.5059 63.1894 75.335 63.1894 75.1254V64.9436H70.3433L70.3308 75.1254C70.3308 75.3352 70.5013 75.5059 70.7111 75.5059H75.3116C75.5219 75.5059 75.6899 75.335 75.6903 75.1254V51.3217V51.3217ZM42.3433 54.4455C42.3433 52.8073 41.0183 51.4836 39.3837 51.4836C37.7507 51.4836 36.4247 52.8073 36.4247 54.4455C36.4247 56.0816 37.7507 57.4087 39.3837 57.4087C41.0183 57.4087 42.3433 56.0816 42.3433 54.4455ZM42.0151 70.1041V59.1164C42.0154 59.0162 41.9756 58.92 41.9044 58.8489C41.8332 58.7778 41.7365 58.7375 41.6354 58.737H37.0603C36.8505 58.737 36.6626 58.9516 36.6626 59.1604V74.9023C36.6626 75.3652 36.9535 75.5025 37.33 75.5025H41.452C41.9042 75.5025 42.0151 75.2823 42.0151 74.8951V70.1041V70.1041ZM93.1326 58.7728H88.5781C88.3693 58.7728 88.1992 58.9434 88.1992 59.1534V70.825C88.1992 70.825 87.0421 71.6642 85.4 71.6642C83.7578 71.6642 83.3222 70.9257 83.3222 69.332V59.1534C83.3222 58.9434 83.1523 58.7728 82.9435 58.7728H78.3209C78.1125 58.7728 77.9414 58.9434 77.9414 59.1534V70.1025C77.9414 74.8363 80.6033 75.9944 84.2654 75.9944C87.2695 75.9944 89.6914 74.3496 89.6914 74.3496C89.6914 74.3496 89.8068 75.2162 89.8589 75.3191C89.9112 75.4216 90.0471 75.5251 90.194 75.5251L93.1348 75.5123C93.3432 75.5123 93.5143 75.3414 93.5143 75.1324L93.5127 59.1536C93.5127 58.9434 93.3424 58.7728 93.1326 58.7728V58.7728ZM103.784 71.6498C102.204 71.6022 101.133 70.8915 101.133 70.8915V63.3536C101.133 63.3536 102.19 62.7114 103.487 62.5965C105.127 62.451 106.707 62.942 106.707 66.8196C106.707 70.9087 105.994 71.7157 103.784 71.6498V71.6498ZM105.58 58.2383C102.994 58.2383 101.234 59.3822 101.234 59.3822V51.3219C101.234 51.1117 101.065 50.9421 100.856 50.9421H96.253C96.2029 50.9423 96.1534 50.9524 96.1072 50.9716C96.0611 50.9908 96.0192 51.0188 95.9839 51.0541C95.9487 51.0894 95.9208 51.1312 95.9019 51.1771C95.883 51.2231 95.8734 51.2722 95.8737 51.3219V75.1254C95.8737 75.3352 96.0437 75.5059 96.2536 75.5059H99.4471C99.5907 75.5059 99.6996 75.4324 99.78 75.3039C99.8593 75.176 99.9739 74.2065 99.9739 74.2065C99.9739 74.2065 101.856 75.9742 105.419 75.9742C109.601 75.9742 112 73.8713 112 66.5343C112 59.197 108.169 58.2383 105.58 58.2383V58.2383ZM55.2059 58.735H51.7631L51.7579 54.2269C51.7579 54.0563 51.6692 53.971 51.4702 53.971H46.7786C46.5962 53.971 46.4983 54.0507 46.4983 54.2243V58.8829C46.4983 58.8829 44.1472 59.4453 43.9883 59.4909C43.909 59.5137 43.8393 59.5614 43.7897 59.6268C43.7401 59.6922 43.7133 59.7719 43.7134 59.8537V62.7811C43.7134 62.9917 43.883 63.1611 44.0929 63.1611H46.4983V70.2034C46.4983 75.4345 50.2002 75.9483 52.6983 75.9483C53.8397 75.9483 55.2051 75.5852 55.4305 75.5023C55.5668 75.4527 55.646 75.3127 55.646 75.161L55.6498 71.9407C55.6498 71.7305 55.4709 71.5609 55.2693 71.5609C55.0687 71.5609 54.5555 71.6418 54.0271 71.6418C52.3361 71.6418 51.7631 70.8625 51.7631 69.8537L51.7629 63.1609H55.2059C55.4157 63.1609 55.5856 62.9913 55.5856 62.7809V59.114C55.5858 59.0643 55.5762 59.0152 55.5572 58.9693C55.5383 58.9233 55.5103 58.8816 55.4751 58.8464C55.4398 58.8112 55.3979 58.7832 55.3517 58.7641C55.3055 58.745 55.2559 58.7351 55.2059 58.735" fill="white"/>
</svg>
