<svg width="126" height="126" viewBox="0 0 126 126" fill="none" xmlns="http://www.w3.org/2000/svg">
<rect width="126" height="126" rx="10" fill="#1F2233"/>
<path d="M101 24H24V101H101V24Z" fill="#F7DF1E"/>
<path d="M75.7244 84.1565C77.2754 86.689 79.2933 88.5504 82.8622 88.5504C85.8603 88.5504 87.7755 87.052 87.7755 84.9815C87.7755 82.5004 85.8078 81.6217 82.5078 80.1782L80.6989 79.4021C75.4775 77.1777 72.0089 74.391 72.0089 68.4999C72.0089 63.0732 76.1437 58.9421 82.6055 58.9421C87.206 58.9421 90.5133 60.5432 92.8967 64.7354L87.2622 68.3532C86.0217 66.1288 84.6833 65.2524 82.6055 65.2524C80.4862 65.2524 79.143 66.5969 79.143 68.3532C79.143 70.5239 80.4874 71.4027 83.5919 72.7471L85.4008 73.522C91.5485 76.1583 95.0197 78.846 95.0197 84.8887C95.0197 91.4031 89.9022 94.972 83.0297 94.972C76.3099 94.972 71.9686 91.7698 69.8443 87.5727L75.7244 84.1565ZM50.1641 84.7835C51.3008 86.8002 52.3348 88.5052 54.8208 88.5052C57.198 88.5052 58.6977 87.5751 58.6977 83.9585V59.3552H65.9332V84.0563C65.9332 91.5485 61.5406 94.9585 55.1288 94.9585C49.3355 94.9585 45.9805 91.9604 44.2742 88.3494L50.1641 84.7835Z" fill="black"/>
</svg>
