<svg width="126" height="126" viewBox="0 0 126 126" fill="none" xmlns="http://www.w3.org/2000/svg">
<rect width="126" height="126" rx="10" fill="#1F2233"/>
<g clip-path="url(#clip0)">
<path d="M96.8431 43.7429C96.8679 43.8343 96.8806 43.9286 96.8808 44.0233V58.7438C96.8808 58.9328 96.8308 59.1184 96.7357 59.2818C96.6406 59.4453 96.5039 59.5809 96.3394 59.6749L83.9354 66.7883V80.8877C83.9354 81.2714 83.7307 81.6256 83.3967 81.8188L57.5045 96.6655C57.4452 96.699 57.3805 96.7205 57.3159 96.7433C57.2917 96.7513 57.2688 96.7661 57.2432 96.7728C57.0622 96.8203 56.8719 96.8203 56.6909 96.7728C56.6613 96.7648 56.6343 96.7487 56.6061 96.7379C56.5468 96.7165 56.4848 96.6977 56.4283 96.6655L30.5415 81.8188C30.377 81.7247 30.2404 81.5891 30.1453 81.4256C30.0503 81.2622 30.0001 81.0766 30 80.8877V36.7261C30 36.6295 30.0135 36.5355 30.0377 36.4443C30.0458 36.4135 30.0647 36.3853 30.0754 36.3544C30.0956 36.2981 30.1145 36.2404 30.1441 36.1881C30.1643 36.1532 30.194 36.125 30.2182 36.0928C30.2492 36.0499 30.2775 36.0056 30.3138 35.968C30.3448 35.9372 30.3852 35.9144 30.4202 35.8875C30.4593 35.8553 30.4943 35.8204 30.5388 35.795H30.5401L43.4842 28.3716C43.6481 28.2777 43.8339 28.2282 44.023 28.2282C44.2121 28.2282 44.3978 28.2777 44.5617 28.3716L57.5058 35.795H57.5085C57.5516 35.8218 57.588 35.8553 57.627 35.8862C57.6621 35.913 57.7011 35.9372 57.7321 35.9667C57.7698 36.0056 57.7968 36.0499 57.8291 36.0928C57.852 36.125 57.883 36.1532 57.9018 36.1881C57.9328 36.2417 57.9503 36.2981 57.9719 36.3544C57.9826 36.3853 58.0015 36.4135 58.0096 36.4457C58.0344 36.5371 58.047 36.6314 58.0473 36.7261V64.309L68.8336 58.1226V44.0219C68.8336 43.928 68.847 43.8328 68.8713 43.7429C68.8807 43.7107 68.8982 43.6825 68.909 43.6516C68.9305 43.5953 68.9494 43.5376 68.979 43.4853C68.9992 43.4504 69.0289 43.4222 69.0518 43.39C69.0841 43.3471 69.111 43.3028 69.1487 43.2652C69.1797 43.2344 69.2188 43.2116 69.2538 43.1847C69.2942 43.1525 69.3292 43.1177 69.3723 43.0922H69.3737L82.3191 35.6688C82.483 35.5748 82.6688 35.5253 82.8579 35.5253C83.047 35.5253 83.2328 35.5748 83.3967 35.6688L96.3407 43.0922C96.3865 43.119 96.4215 43.1525 96.4619 43.1834C96.4956 43.2102 96.5347 43.2344 96.5657 43.2639C96.6034 43.3028 96.6303 43.3471 96.6626 43.39C96.6869 43.4222 96.7165 43.4504 96.7354 43.4853C96.7664 43.5376 96.7839 43.5953 96.8054 43.6516C96.8175 43.6825 96.835 43.7107 96.8431 43.7429V43.7429ZM94.723 58.1226V45.8815L90.1933 48.4789L83.9354 52.0678V64.309L94.7244 58.1226H94.723ZM81.779 80.2665V68.0173L75.6235 71.519L58.0459 81.5116V93.8762L81.779 80.2665ZM32.1578 38.5842V80.2665L55.8881 93.8748V81.5129L43.4909 74.5243L43.4869 74.5216L43.4815 74.5189C43.4397 74.4948 43.4047 74.4599 43.3657 74.4304C43.332 74.4035 43.2929 74.3821 43.2633 74.3525L43.2606 74.3485C43.2256 74.315 43.2013 74.2734 43.1717 74.2358C43.1448 74.1996 43.1124 74.1687 43.0909 74.1312L43.0895 74.1271C43.0653 74.0869 43.0505 74.0386 43.033 73.993C43.0155 73.9527 42.9926 73.9152 42.9818 73.8722V73.8709C42.9683 73.8199 42.9656 73.7662 42.9602 73.7139C42.9548 73.6737 42.9441 73.6334 42.9441 73.5932V44.7706L36.6875 41.1803L32.1578 38.5856V38.5842ZM44.0243 30.5424L33.2394 36.7261L44.0216 42.9097L54.8052 36.7247L44.0216 30.5424H44.0243ZM49.633 69.1335L55.8895 65.546V38.5842L51.3597 41.1817L45.1019 44.7706V71.7323L49.633 69.1335ZM82.8579 37.8396L72.0743 44.0233L82.8579 50.2069L93.6401 44.0219L82.8579 37.8396ZM81.779 52.0678L75.5211 48.4789L70.9914 45.8815V58.1226L77.2479 61.7102L81.779 64.309V52.0678ZM56.9657 79.6534L72.7828 70.659L80.6893 66.1645L69.9138 59.9848L57.5072 67.0996L46.1996 73.5838L56.9657 79.6534Z" fill="#FF2D20"/>
</g>
<defs>
<clipPath id="clip0">
<rect width="67" height="69" fill="white" transform="translate(30 28)"/>
</clipPath>
</defs>
</svg>
