<svg width="126" height="126" viewBox="0 0 126 126" fill="none" xmlns="http://www.w3.org/2000/svg">
<rect width="126" height="126" rx="10" fill="#1F2233"/>
<path d="M62.8236 20.2322L65.0919 24.4925C65.6018 25.2787 66.1543 25.9745 66.805 26.6226C68.7128 28.5066 70.4911 30.5174 72.1278 32.6412C75.9711 37.6877 78.5634 43.292 80.4146 49.3531C81.5249 53.0556 82.1278 56.8538 82.173 60.6944C82.3589 72.1765 78.4226 82.0358 70.4863 90.2297C69.1954 91.5291 67.8008 92.7212 66.3163 93.7941C65.5301 93.7941 65.1583 93.1912 64.8342 92.6361C64.2441 91.6067 63.8514 90.4762 63.6762 89.3027C63.3973 87.9136 63.2141 86.5245 63.3044 85.0903V84.4422C63.2406 84.3041 62.5474 20.5588 62.8236 20.2322Z" fill="#599636"/>
<path d="M62.8236 20.0914C62.7307 19.9055 62.6377 20.0462 62.5447 20.1365C62.5899 21.0661 62.2659 21.8948 61.7586 22.6863C61.2008 23.4725 60.4624 24.0755 59.7214 24.7235C55.6045 28.2879 52.3641 32.5934 49.7691 37.4088C46.3163 43.8896 44.5367 50.8352 44.0321 58.1473C43.801 60.7847 44.8661 70.0915 45.6974 72.7768C47.9657 79.9056 52.0401 85.8791 57.3176 91.0637C58.6138 92.312 60.0002 93.4701 61.4345 94.583C61.8515 94.583 61.8967 94.2111 61.9923 93.9349C62.1751 93.3438 62.3145 92.7402 62.4093 92.1288L63.3389 85.1859L62.8236 20.0914Z" fill="#6CAC48"/>
<path d="M65.0919 96.6149C65.1848 95.5524 65.6948 94.6706 66.2499 93.7915C65.6921 93.5604 65.2778 93.1009 64.9537 92.5883C64.6743 92.1029 64.443 91.5914 64.2632 91.0611C63.6151 89.1168 63.477 87.077 63.2911 85.0903V83.8871C63.06 84.073 63.0122 85.6454 63.0122 85.8791C62.877 87.9789 62.5984 90.067 62.1782 92.1288C62.0401 92.9628 61.9471 93.7941 61.4345 94.5352C61.4345 94.6281 61.4345 94.7211 61.4796 94.8592C62.3136 97.3134 62.5421 99.8127 62.6828 102.36V103.29C62.6828 104.4 62.6377 104.166 63.5593 104.538C63.9312 104.676 64.3455 104.724 64.7174 105C64.9962 105 65.0414 104.769 65.0414 104.583L64.9033 103.056V98.7955C64.8581 98.0518 64.9962 97.3134 65.0892 96.6175L65.0919 96.6149Z" fill="#C2BFBF"/>
<path fill-rule="evenodd" clip-rule="evenodd" d="M126 105V116C126 121.523 121.523 126 116 126H99V115C99 109.477 103.477 105 109 105H126Z" fill="#0094FF"/>
</svg>
