<svg width="126" height="126" viewBox="0 0 126 126" fill="none" xmlns="http://www.w3.org/2000/svg">
<rect width="126" height="126" rx="10" fill="#1F2233"/>
<path d="M91.6351 81.0465C87.9353 80.9553 85.0678 81.3212 82.6629 82.3271C81.9691 82.6012 80.859 82.6015 80.7665 83.4704C81.1365 83.8363 81.1828 84.4309 81.5065 84.9337C82.0621 85.8481 83.0327 87.0829 83.9115 87.7235C84.8825 88.4549 85.8541 89.1864 86.8712 89.8267C88.6751 90.9243 90.7103 91.5643 92.4677 92.6619C93.4855 93.3017 94.5023 94.1254 95.5199 94.8112C96.0287 95.1765 96.3522 95.7716 97 96V95.8631C96.676 95.4512 96.5834 94.8569 96.2599 94.3996C95.7979 93.9422 95.3349 93.5306 94.8723 93.0733C93.5312 91.2902 91.8664 89.7352 90.0627 88.4549C88.5829 87.4488 85.3451 86.077 84.7441 84.3849C84.7441 84.3849 84.6975 84.3394 84.6515 84.2937C85.6689 84.2022 86.8712 83.8363 87.8428 83.5619C89.4152 83.15 90.8488 83.2418 92.4677 82.8302C93.2074 82.6472 93.9475 82.4186 94.6873 82.1899V81.7785C93.8553 80.9553 93.254 79.858 92.3751 79.0805C90.0165 77.0679 87.4262 75.1019 84.7441 73.4557C83.3102 72.5411 81.46 71.9465 79.9339 71.1693C79.3794 70.8946 78.4541 70.7577 78.1305 70.3004C77.2977 69.2945 76.8352 67.9684 76.2341 66.7794C74.8933 64.264 73.5979 61.4747 72.4416 58.8227C71.6096 57.0391 71.1008 55.2554 70.0832 53.6095C65.3196 45.8355 60.1397 41.1254 52.1851 36.5066C50.4737 35.5464 48.4388 35.1348 46.2651 34.632C45.1093 34.586 43.9527 34.4948 42.7966 34.4488C42.0565 34.1287 41.3165 33.26 40.6689 32.8484C38.0332 31.2019 31.2342 27.6355 29.2918 32.3456C28.0429 35.3177 31.1419 38.2442 32.2052 39.7537C32.9921 40.8053 34.0091 41.9941 34.5642 43.1832C34.888 43.9602 34.9802 44.7839 35.304 45.6069C36.0443 47.6184 36.7376 49.8596 37.7092 51.7347C38.218 52.6948 38.7728 53.7007 39.4203 54.5697C39.7903 55.0725 40.4376 55.3014 40.5767 56.1244C39.9294 57.0391 39.8829 58.4111 39.5126 59.5542C37.8477 64.7216 38.4955 71.1236 40.8539 74.919C41.5937 76.0618 43.3514 78.5777 45.71 77.617C47.7915 76.7941 47.3289 74.1875 47.9297 71.901C48.069 71.3517 47.9765 70.9864 48.2537 70.6205V70.7122C48.9013 71.9922 49.5486 73.2273 50.1499 74.5076C51.5838 76.7481 54.0809 79.0805 56.1621 80.6355C57.2724 81.4581 58.151 82.8759 59.5386 83.379V83.2415H59.4458C59.1683 82.8299 58.752 82.6472 58.3823 82.3268C57.55 81.5041 56.6246 80.498 55.9773 79.5833C54.0352 77.0222 52.3235 74.1872 50.7974 71.2605C50.0576 69.8433 49.4098 68.2883 48.8088 66.8708C48.531 66.3215 48.531 65.4988 48.0687 65.2247C47.3749 66.2305 46.3576 67.0995 45.8488 68.334C44.9705 70.3004 44.8777 72.724 44.554 75.2388C44.3689 75.2851 44.4612 75.2388 44.3687 75.3308C42.8891 74.9644 42.3803 73.4557 41.825 72.1752C40.4374 68.9286 40.2061 63.7154 41.409 59.9658C41.7327 59.0054 43.1204 55.9874 42.5653 55.0728C42.2878 54.2038 41.3624 53.7007 40.8539 53.015C40.2529 52.146 39.6051 51.0489 39.189 50.0883C38.079 47.5274 37.5239 44.6922 36.3216 42.1313C35.7665 40.9422 34.7957 39.708 34.0091 38.6103C33.1306 37.3758 32.1593 36.5066 31.4654 35.0433C31.2344 34.5405 30.9104 33.7173 31.2804 33.1685C31.3729 32.8026 31.5577 32.6657 31.928 32.5742C32.5293 32.0709 34.2407 32.7112 34.8414 32.9856C36.5528 33.6711 37.9864 34.3119 39.4203 35.272C40.0676 35.7294 40.7614 36.5983 41.5937 36.827H42.565C44.0452 37.1468 45.7098 36.9184 47.0974 37.3298C49.5488 38.107 51.7685 39.2503 53.7574 40.4852C59.8161 44.2806 64.8105 49.6767 68.187 56.1244C68.7421 57.1757 68.9731 58.1367 69.4819 59.2338C70.4535 61.4747 71.6558 63.7612 72.6266 65.9561C73.5979 68.1051 74.5227 70.3004 75.9104 72.084C76.6042 73.0439 79.3789 73.5472 80.6277 74.0503C81.5528 74.4616 82.9867 74.8278 83.819 75.3306C85.3913 76.2905 86.9637 77.3886 88.4438 78.44C89.1839 78.9888 91.4961 80.1321 91.6351 81.0465V81.0465Z" fill="#00B2E2"/>
<path d="M44.0497 41C43.1999 41 42.6001 41.1048 42 41.2607V41.3649H42.1C42.5004 42.1982 43.1999 42.7711 43.6997 43.5C44.1 44.333 44.4498 45.1667 44.8501 46C44.8998 45.9476 44.9498 45.8958 44.9498 45.8958C45.6502 45.3747 46 44.5417 46 43.2917C45.7 42.9274 45.6499 42.5628 45.3999 42.1982C45.1002 41.6771 44.4498 41.417 44.0497 41V41Z" fill="#00B2E2"/>
</svg>
