<svg width="126" height="126" viewBox="0 0 126 126" fill="none" xmlns="http://www.w3.org/2000/svg">
<g clip-path="url(#clip0_201_51)">
<path d="M116 0H10C4.47715 0 0 4.47715 0 10V116C0 121.523 4.47715 126 10 126H116C121.523 126 126 121.523 126 116V10C126 4.47715 121.523 0 116 0Z" fill="#1F2233"/>
<path fill-rule="evenodd" clip-rule="evenodd" d="M68.7274 29.1612C68.2351 29.1612 67.7779 29.2674 67.3558 29.409C68.2526 30.0107 68.745 30.8072 68.9912 31.7097C69.0088 31.8336 69.044 31.9221 69.0616 32.046C69.0792 32.1522 69.0967 32.2584 69.0967 32.3646C69.1671 33.922 68.6923 34.1167 68.3581 35.037C67.8482 36.2227 67.9889 37.497 68.6043 38.5235C68.6571 38.6473 68.7274 38.7889 68.8154 38.9128C68.1471 34.4352 71.8575 33.7627 72.5433 32.3646C72.596 31.1434 71.5937 30.3293 70.8024 29.763C70.0463 29.3028 69.3605 29.1612 68.7274 29.1612ZM74.3193 30.17C74.249 30.5771 74.3017 30.4709 74.2842 30.6833C74.2666 30.8248 74.2666 31.0018 74.2491 31.1434C74.2139 31.285 74.1787 31.4266 74.126 31.5682C74.0908 31.7097 74.038 31.8513 73.9853 31.9929C73.9149 32.1345 73.8622 32.2584 73.7919 32.4C73.7391 32.4708 73.7039 32.5415 73.6512 32.6123C73.616 32.6654 73.5808 32.7185 73.5457 32.7716C73.4578 32.8955 73.3698 33.0194 73.2819 33.1256C73.1764 33.2318 73.0885 33.3556 72.9654 33.4441V33.4619C72.8599 33.5504 72.7544 33.6565 72.6313 33.745C72.262 34.0282 71.84 34.2406 71.4531 34.506C71.33 34.5945 71.2069 34.6653 71.1014 34.7715C70.9783 34.86 70.8728 34.9485 70.7673 35.0547C70.6442 35.1609 70.5563 35.2671 70.4508 35.3909C70.3629 35.4971 70.2573 35.621 70.187 35.7449C70.0991 35.8688 70.0112 35.9927 69.9408 36.1166C69.8705 36.2581 69.8177 36.382 69.7474 36.5236C69.6946 36.6652 69.6419 36.7891 69.6067 36.9307C69.554 37.0899 69.5188 37.2315 69.4836 37.3731C69.466 37.4439 69.466 37.5324 69.4485 37.6032C69.4308 37.674 69.4308 37.7448 69.4133 37.8156C69.4133 37.9571 69.3957 38.1164 69.3957 38.258C69.3957 38.3642 69.3957 38.4704 69.4133 38.5766C69.4133 38.7181 69.4309 38.8597 69.4661 39.019C69.4837 39.1606 69.5188 39.3022 69.554 39.4438C69.6068 39.5853 69.6419 39.7269 69.6947 39.8685C69.7298 39.957 69.7826 40.0455 69.8178 40.1163L65.7733 38.5412C65.0875 38.3465 64.4193 38.1695 63.7335 38.0102C63.3642 37.9217 62.9949 37.8333 62.6257 37.7448C61.5706 37.5324 60.4979 37.3731 59.4253 37.2669C59.3901 37.2669 59.3725 37.2492 59.3373 37.2492C58.2822 37.143 57.2448 37.0899 56.1897 37.0899C55.4159 37.0899 54.6422 37.1253 53.8861 37.1784C52.8134 37.2492 51.7407 37.3908 50.6681 37.5678C50.4043 37.6031 50.1405 37.6563 49.8768 37.7094C49.3316 37.8155 48.8041 37.9394 48.2942 38.0633C48.0304 38.1341 47.7666 38.2049 47.5028 38.2757C47.2391 38.3819 46.9929 38.5058 46.7467 38.6119C46.5533 38.7004 46.3598 38.7889 46.1664 38.8774C46.1313 38.8951 46.096 38.8951 46.0785 38.9128C45.9026 39.0013 45.7444 39.0721 45.5861 39.1606C45.5334 39.1783 45.4982 39.1959 45.463 39.2136C45.2696 39.3021 45.0762 39.4083 44.9179 39.4968C44.7948 39.5499 44.6717 39.6207 44.5662 39.6738C44.5134 39.7092 44.4431 39.7446 44.4079 39.7623C44.2497 39.8508 44.0914 39.9393 43.9507 40.0278C43.7925 40.1162 43.6518 40.2047 43.5287 40.2932C43.4056 40.3817 43.2825 40.4525 43.177 40.541C43.1594 40.5587 43.1419 40.5587 43.1243 40.5764C43.0187 40.6472 42.8957 40.7356 42.7902 40.8241C42.7902 40.8241 42.7725 40.8419 42.755 40.8595C42.6671 40.9303 42.5792 41.0011 42.4912 41.0719C42.4561 41.0896 42.4209 41.125 42.3857 41.1427C42.2978 41.2135 42.2099 41.302 42.122 41.3728C42.1043 41.4081 42.0692 41.4259 42.0516 41.4436C41.9461 41.5498 41.8406 41.6383 41.7351 41.7444C41.7175 41.7444 41.7175 41.7622 41.6999 41.7798C41.5944 41.8683 41.4889 41.9745 41.3834 42.0807C41.3658 42.0984 41.3658 42.116 41.3483 42.116C41.2603 42.2045 41.1724 42.293 41.0845 42.3992C41.0493 42.4346 40.9966 42.47 40.9614 42.5054C40.8735 42.6116 40.768 42.7178 40.6625 42.824C40.6448 42.8593 40.6097 42.8771 40.5921 42.9125C40.4514 43.054 40.3283 43.1956 40.1876 43.3372C40.17 43.3549 40.1525 43.3726 40.1349 43.3903C39.8535 43.6912 39.5546 43.992 39.2381 44.2575C38.9216 44.5407 38.5874 44.8061 38.2533 45.0362C37.9016 45.284 37.5675 45.4964 37.1983 45.7087C36.8466 45.9034 36.4773 46.0804 36.0904 46.2397C35.7211 46.399 35.3343 46.5405 34.9474 46.6644C34.2089 46.8237 33.4527 47.1246 32.8021 47.1777C32.6614 47.1777 32.5031 47.213 32.3625 47.2307C32.2042 47.2661 32.0635 47.3016 31.9229 47.3369C31.7822 47.39 31.6415 47.4431 31.5008 47.4962C31.3601 47.5493 31.2195 47.6201 31.0788 47.6909C30.9557 47.7794 30.815 47.8502 30.6919 47.9387C30.5688 48.0272 30.4457 48.1333 30.3402 48.2395C30.2171 48.328 30.094 48.4519 29.9885 48.5581C29.883 48.682 29.7775 48.7882 29.6896 48.9121C29.6017 49.0536 29.4962 49.1775 29.4258 49.3191C29.3379 49.443 29.25 49.5846 29.1796 49.7262C29.1093 49.8854 29.039 50.027 28.9862 50.1863C28.9335 50.3279 28.8807 50.4872 28.828 50.6465C28.7928 50.788 28.7576 50.9296 28.74 51.0712C28.74 51.0889 28.7224 51.1066 28.7224 51.1243C28.6873 51.2836 28.6873 51.496 28.6697 51.6022C28.6521 51.726 28.6345 51.8322 28.6345 51.9561C28.6345 52.0269 28.6345 52.1154 28.6521 52.1862C28.6697 52.3101 28.6873 52.4163 28.7225 52.5224C28.7576 52.6286 28.7929 52.7348 28.8456 52.841V52.8587C28.8983 52.9649 28.9687 53.0711 29.039 53.1773C29.1094 53.2835 29.1797 53.3897 29.2676 53.4959C29.3555 53.5843 29.4611 53.6905 29.5666 53.779C29.6721 53.8852 29.7776 53.9737 29.9007 54.0622C30.3227 54.4338 30.4282 54.5577 30.9733 54.8409C31.0613 54.894 31.1492 54.9294 31.2547 54.9825C31.2723 54.9825 31.2898 55.0002 31.3074 55.0002C31.3074 55.0356 31.3074 55.0533 31.3251 55.0887C31.3427 55.2303 31.3778 55.3719 31.413 55.5134C31.4481 55.6727 31.5009 55.8143 31.5537 55.9382C31.6064 56.0444 31.6416 56.1506 31.6943 56.2568C31.712 56.2921 31.7295 56.3276 31.7471 56.3452C31.8175 56.4868 31.8878 56.6107 31.9581 56.7346C32.046 56.8585 32.134 56.9824 32.2219 57.1063C32.3098 57.2124 32.4153 57.3363 32.5208 57.4425C32.6263 57.5487 32.7318 57.6372 32.8549 57.7434C32.8549 57.7434 32.8725 57.7611 32.8901 57.7611C32.9956 57.8496 33.1011 57.9381 33.2066 58.0089C33.3297 58.0974 33.4528 58.1682 33.5935 58.239C33.7166 58.3098 33.8572 58.3806 33.9979 58.4337C34.1034 58.4867 34.2265 58.5221 34.3496 58.5575C34.3672 58.5753 34.3847 58.5753 34.42 58.5929C34.4903 58.6107 34.5782 58.6283 34.6486 58.646C34.5958 59.6017 34.5782 60.5043 34.7189 60.8228C34.8772 61.1768 35.6509 60.0972 36.4246 58.8584C36.3191 60.0795 36.2488 61.5131 36.4246 61.9378C36.6181 62.3803 37.6732 60.9998 38.5876 59.4778C51.0551 56.5754 62.4324 65.2473 63.6281 77.4943C63.3995 75.5829 61.0608 74.521 59.9881 74.7865C59.4606 76.0962 58.5637 77.7775 57.1218 78.8216C57.2449 77.6536 57.1922 76.4501 56.946 75.2821C56.5591 76.9103 55.8029 78.4323 54.7654 79.7419C53.0949 79.8658 51.4244 79.0517 50.5451 77.8306C50.4748 77.7775 50.4572 77.6713 50.4044 77.6005C50.3517 77.4766 50.2989 77.3527 50.2638 77.2288C50.211 77.1049 50.1758 76.9811 50.1583 76.8572C50.1406 76.7333 50.1406 76.6094 50.1406 76.4678C50.1406 76.3793 50.1406 76.2908 50.1406 76.2024C50.1583 76.0785 50.1934 75.9546 50.2286 75.8307C50.2637 75.7068 50.2989 75.5829 50.3517 75.459C50.422 75.3352 50.4748 75.2113 50.5627 75.0874C50.8616 74.2379 50.8616 73.5477 50.3165 73.1406C50.211 73.0698 50.1055 73.0167 49.9824 72.9636C49.912 72.9459 49.8241 72.9105 49.7538 72.8928C49.701 72.8751 49.6659 72.8574 49.6131 72.8397C49.49 72.8043 49.3669 72.7689 49.2438 72.7512C49.1207 72.7159 48.9976 72.6981 48.8745 72.6981C48.7515 72.6804 48.6108 72.6628 48.4877 72.6628C48.3998 72.6628 48.3118 72.6805 48.2239 72.6805C48.0832 72.6805 47.9601 72.6982 47.8371 72.7336C47.714 72.7513 47.5909 72.7689 47.4678 72.8044C47.3447 72.8398 47.2216 72.8752 47.0985 72.9283C46.9754 72.9814 46.8699 73.0345 46.7468 73.0876C46.6413 73.1407 46.5358 73.2114 46.4127 73.2645C42.3155 75.9546 44.7597 82.2551 47.5557 84.078C46.5006 84.2727 45.428 84.5027 45.129 84.7328C45.1114 84.7505 45.0939 84.7682 45.0939 84.7682C45.85 85.2283 46.6413 85.6177 47.4678 85.9539C48.5932 86.3256 49.789 86.6618 50.3165 86.8034V86.8212C51.776 87.122 53.2532 87.2282 54.7479 87.1397C62.5379 86.5911 68.9211 80.6269 70.0817 72.769C70.1168 72.9283 70.1521 73.0699 70.1872 73.2291C70.24 73.5477 70.3103 73.884 70.3455 74.2202V74.238C70.3806 74.3972 70.3982 74.5565 70.4158 74.6981V74.7689C70.4335 74.9282 70.451 75.0875 70.451 75.2291C70.4686 75.4238 70.4861 75.6184 70.4861 75.8131V76.0963C70.4861 76.1848 70.5037 76.2909 70.5037 76.3794C70.5037 76.4856 70.4861 76.5918 70.4861 76.698V76.9458C70.4861 77.0697 70.4685 77.1759 70.4685 77.2997C70.4685 77.3706 70.4685 77.4413 70.4509 77.5298C70.4509 77.6537 70.4333 77.7776 70.4333 77.9192C70.4156 77.9723 70.4156 78.0254 70.4156 78.0785C70.398 78.22 70.3805 78.3439 70.3629 78.4855C70.3629 78.5386 70.3629 78.5917 70.3453 78.6448C70.3276 78.8218 70.2925 78.9811 70.2749 79.158V79.1758V79.1935C70.2398 79.3528 70.2045 79.5297 70.1694 79.689V79.7421C70.1343 79.9014 70.099 80.0607 70.0639 80.22C70.0639 80.2377 70.0463 80.2731 70.0463 80.2908C70.0111 80.4501 69.9759 80.6093 69.9232 80.7686V80.8217C69.8704 80.9987 69.8177 81.158 69.7825 81.3173C69.7649 81.335 69.7649 81.3526 69.7649 81.3526C69.7121 81.5296 69.6594 81.7066 69.6066 81.8836C69.5363 82.0606 69.4836 82.2198 69.4132 82.3968C69.3429 82.5738 69.2901 82.7508 69.2198 82.91C69.1494 83.087 69.0791 83.2463 69.0088 83.4233H68.9911C68.9208 83.5826 68.8504 83.7596 68.7625 83.9188C68.7449 83.9719 68.7274 84.0073 68.7098 84.0427C68.6922 84.0605 68.6922 84.0781 68.6746 84.0958C67.5316 86.4142 65.8435 88.4495 63.7333 90.0423C63.5927 90.1308 63.452 90.237 63.3113 90.3432C63.2762 90.3785 63.2234 90.3963 63.1882 90.4317C63.0651 90.5202 62.942 90.6086 62.8014 90.6971L62.8541 90.8033H62.8717C63.1179 90.768 63.3641 90.7325 63.6103 90.6971H63.6279C64.0851 90.6263 64.5423 90.5379 64.9995 90.4494C65.1226 90.4316 65.2633 90.3963 65.3863 90.3609C65.4743 90.3431 65.5446 90.3255 65.6325 90.3078C65.7556 90.29 65.8787 90.2547 66.0018 90.237C66.1073 90.2016 66.2128 90.1839 66.3183 90.1485C68.0768 89.7237 69.7825 89.1397 71.4179 88.4495C68.6219 92.2899 64.8764 95.3871 60.4978 97.4223C62.5201 97.2807 64.5423 96.9445 66.4942 96.3781C73.5808 94.2721 79.542 89.4759 83.1117 83.0162C82.3907 87.1044 80.7729 90.998 78.3814 94.396C80.0871 93.2633 81.6522 91.9537 83.0765 90.467C87.0155 86.3257 89.6004 81.0694 90.4797 75.4238C91.0775 78.2201 91.2534 81.1048 90.9896 83.9542C103.686 66.1324 92.0447 47.6557 87.1737 42.7888C87.1561 42.7534 87.1386 42.7357 87.1386 42.7003C87.121 42.718 87.121 42.718 87.121 42.7357C87.121 42.718 87.121 42.718 87.1034 42.7003C87.1034 42.9127 87.0858 43.1251 87.0682 43.3374C87.0155 43.7445 86.9627 44.1338 86.8924 44.5232C86.8045 44.9126 86.6989 45.3019 86.5934 45.6913C86.4703 46.0629 86.3297 46.4523 86.1714 46.8239C86.0131 47.1779 85.8373 47.5495 85.6439 47.9035C85.4504 48.2398 85.2394 48.5937 85.0108 48.9123C84.7822 49.2486 84.536 49.5671 84.2898 49.868C84.0261 50.1865 83.7447 50.4697 83.4634 50.7529C83.2875 50.9122 83.1293 51.0537 82.9534 51.1953C82.8127 51.3192 82.6896 51.4254 82.549 51.5493C82.2324 51.797 81.9159 52.0271 81.5642 52.2395C81.2301 52.4519 80.8784 52.6642 80.5267 52.8412C80.1575 53.0182 79.7882 53.1775 79.4189 53.3368C79.0496 53.4783 78.6628 53.6022 78.2759 53.7084C77.889 53.8146 77.4846 53.9031 77.0977 53.9739C76.6933 54.0447 76.2888 54.0801 75.902 54.1155C75.6206 54.1332 75.3393 54.1509 75.0579 54.1509C74.6534 54.1509 74.249 54.1155 73.8621 54.08C73.4577 54.0447 73.0532 53.9915 72.6664 53.903C72.2619 53.8322 71.8751 53.7261 71.4882 53.6022H71.4706C71.8575 53.5668 72.2443 53.5314 72.6312 53.4606C73.0356 53.3898 73.4225 53.3013 73.8094 53.1951C74.1962 53.0889 74.5831 52.965 74.9524 52.8235C75.3392 52.6819 75.7085 52.5049 76.0602 52.3279C76.4295 52.1509 76.7636 51.9563 77.1153 51.7439C77.4494 51.5138 77.7835 51.2838 78.1 51.036C78.4165 50.7882 78.7155 50.5227 78.9968 50.2396C79.2958 49.9741 79.5596 49.6732 79.8233 49.3724C80.0871 49.0538 80.3333 48.7353 80.5619 48.4167C80.597 48.3636 80.6322 48.2928 80.6674 48.2397C80.8432 47.9565 81.0191 47.6734 81.1773 47.3902C81.3708 47.0362 81.5466 46.6823 81.7049 46.3106C81.8631 45.939 82.0038 45.5673 82.1269 45.178C82.25 44.8063 82.3379 44.417 82.4259 44.0276C82.4962 43.6205 82.5665 43.2312 82.6017 42.8418C82.6368 42.4348 82.6721 42.0277 82.6721 41.6384C82.6721 41.3552 82.6544 41.072 82.6369 40.7889C82.6018 40.3818 82.549 39.9925 82.4962 39.6031C82.4259 39.1961 82.338 38.8067 82.2325 38.4174C82.1094 38.0457 81.9863 37.6563 81.8456 37.2847C81.7049 36.913 81.5291 36.5414 81.3532 36.1874C81.1598 35.8335 80.9664 35.4795 80.7554 35.1432C80.5268 34.807 80.2982 34.4884 80.052 34.1699C79.7882 33.869 79.5244 33.5681 79.2431 33.2673C79.1024 33.1257 78.9441 32.9664 78.7859 32.8248C77.9946 32.2054 77.1681 31.6213 76.3416 31.0904C76.2185 31.0196 76.113 30.9665 75.9899 30.9134C75.4096 30.5418 74.8645 30.347 74.3193 30.17Z" fill="#E0234E"/>
<path fill-rule="evenodd" clip-rule="evenodd" d="M126.172 105V116C126.172 121.523 121.695 126 116.172 126H99.172V115C99.172 109.477 103.649 105 109.172 105H126.172Z" fill="#0094FF"/>
<path d="M72.752 114.704C73.224 114.792 73.612 115.028 73.916 115.412C74.22 115.796 74.372 116.236 74.372 116.732C74.372 117.18 74.26 117.576 74.036 117.92C73.82 118.256 73.504 118.52 73.088 118.712C72.672 118.904 72.18 119 71.612 119H68V110.624H71.456C72.024 110.624 72.512 110.716 72.92 110.9C73.336 111.084 73.648 111.34 73.856 111.668C74.072 111.996 74.18 112.368 74.18 112.784C74.18 113.272 74.048 113.68 73.784 114.008C73.528 114.336 73.184 114.568 72.752 114.704ZM69.68 114.08H71.216C71.616 114.08 71.924 113.992 72.14 113.816C72.356 113.632 72.464 113.372 72.464 113.036C72.464 112.7 72.356 112.44 72.14 112.256C71.924 112.072 71.616 111.98 71.216 111.98H69.68V114.08ZM71.372 117.632C71.78 117.632 72.096 117.536 72.32 117.344C72.552 117.152 72.668 116.88 72.668 116.528C72.668 116.168 72.548 115.888 72.308 115.688C72.068 115.48 71.744 115.376 71.336 115.376H69.68V117.632H71.372ZM81.8909 115.532C81.8909 115.772 81.8749 115.988 81.8429 116.18H76.9829C77.0229 116.66 77.1909 117.036 77.4869 117.308C77.7829 117.58 78.1469 117.716 78.5789 117.716C79.2029 117.716 79.6469 117.448 79.9109 116.912H81.7229C81.5309 117.552 81.1629 118.08 80.6189 118.496C80.0749 118.904 79.4069 119.108 78.6149 119.108C77.9749 119.108 77.3989 118.968 76.8869 118.688C76.3829 118.4 75.9869 117.996 75.6989 117.476C75.4189 116.956 75.2789 116.356 75.2789 115.676C75.2789 114.988 75.4189 114.384 75.6989 113.864C75.9789 113.344 76.3709 112.944 76.8749 112.664C77.3789 112.384 77.9589 112.244 78.6149 112.244C79.2469 112.244 79.8109 112.38 80.3069 112.652C80.8109 112.924 81.1989 113.312 81.4709 113.816C81.7509 114.312 81.8909 114.884 81.8909 115.532ZM80.1509 115.052C80.1429 114.62 79.9869 114.276 79.6829 114.02C79.3789 113.756 79.0069 113.624 78.5669 113.624C78.1509 113.624 77.7989 113.752 77.5109 114.008C77.2309 114.256 77.0589 114.604 76.9949 115.052H80.1509ZM85.7212 112.244C86.2172 112.244 86.6532 112.344 87.0292 112.544C87.4052 112.736 87.7012 112.988 87.9172 113.3V112.352H89.6092V119.048C89.6092 119.664 89.4852 120.212 89.2372 120.692C88.9892 121.18 88.6172 121.564 88.1212 121.844C87.6252 122.132 87.0252 122.276 86.3212 122.276C85.3772 122.276 84.6012 122.056 83.9932 121.616C83.3932 121.176 83.0532 120.576 82.9732 119.816H84.6412C84.7292 120.12 84.9172 120.36 85.2052 120.536C85.5012 120.72 85.8572 120.812 86.2732 120.812C86.7612 120.812 87.1572 120.664 87.4612 120.368C87.7652 120.08 87.9172 119.64 87.9172 119.048V118.016C87.7012 118.328 87.4012 118.588 87.0172 118.796C86.6412 119.004 86.2092 119.108 85.7212 119.108C85.1612 119.108 84.6492 118.964 84.1852 118.676C83.7212 118.388 83.3532 117.984 83.0812 117.464C82.8172 116.936 82.6852 116.332 82.6852 115.652C82.6852 114.98 82.8172 114.384 83.0812 113.864C83.3532 113.344 83.7172 112.944 84.1732 112.664C84.6372 112.384 85.1532 112.244 85.7212 112.244ZM87.9172 115.676C87.9172 115.268 87.8372 114.92 87.6772 114.632C87.5172 114.336 87.3012 114.112 87.0292 113.96C86.7572 113.8 86.4652 113.72 86.1532 113.72C85.8412 113.72 85.5532 113.796 85.2892 113.948C85.0252 114.1 84.8092 114.324 84.6412 114.62C84.4812 114.908 84.4012 115.252 84.4012 115.652C84.4012 116.052 84.4812 116.404 84.6412 116.708C84.8092 117.004 85.0252 117.232 85.2892 117.392C85.5612 117.552 85.8492 117.632 86.1532 117.632C86.4652 117.632 86.7572 117.556 87.0292 117.404C87.3012 117.244 87.5172 117.02 87.6772 116.732C87.8372 116.436 87.9172 116.084 87.9172 115.676ZM92.102 111.56C91.806 111.56 91.558 111.468 91.358 111.284C91.166 111.092 91.07 110.856 91.07 110.576C91.07 110.296 91.166 110.064 91.358 109.88C91.558 109.688 91.806 109.592 92.102 109.592C92.398 109.592 92.642 109.688 92.834 109.88C93.034 110.064 93.134 110.296 93.134 110.576C93.134 110.856 93.034 111.092 92.834 111.284C92.642 111.468 92.398 111.56 92.102 111.56ZM92.93 112.352V119H91.25V112.352H92.93ZM98.2738 112.256C99.0658 112.256 99.7058 112.508 100.194 113.012C100.682 113.508 100.926 114.204 100.926 115.1V119H99.2458V115.328C99.2458 114.8 99.1138 114.396 98.8498 114.116C98.5858 113.828 98.2258 113.684 97.7698 113.684C97.3058 113.684 96.9378 113.828 96.6658 114.116C96.4018 114.396 96.2698 114.8 96.2698 115.328V119H94.5898V112.352H96.2698V113.18C96.4938 112.892 96.7778 112.668 97.1218 112.508C97.4738 112.34 97.8578 112.256 98.2738 112.256ZM106.207 112.256C106.999 112.256 107.639 112.508 108.127 113.012C108.615 113.508 108.859 114.204 108.859 115.1V119H107.179V115.328C107.179 114.8 107.047 114.396 106.783 114.116C106.519 113.828 106.159 113.684 105.703 113.684C105.239 113.684 104.871 113.828 104.599 114.116C104.335 114.396 104.203 114.8 104.203 115.328V119H102.523V112.352H104.203V113.18C104.427 112.892 104.711 112.668 105.055 112.508C105.407 112.34 105.791 112.256 106.207 112.256ZM116.637 115.532C116.637 115.772 116.621 115.988 116.589 116.18H111.729C111.769 116.66 111.937 117.036 112.233 117.308C112.529 117.58 112.893 117.716 113.325 117.716C113.949 117.716 114.393 117.448 114.657 116.912H116.469C116.277 117.552 115.909 118.08 115.365 118.496C114.821 118.904 114.153 119.108 113.361 119.108C112.721 119.108 112.145 118.968 111.633 118.688C111.129 118.4 110.733 117.996 110.445 117.476C110.165 116.956 110.025 116.356 110.025 115.676C110.025 114.988 110.165 114.384 110.445 113.864C110.725 113.344 111.117 112.944 111.621 112.664C112.125 112.384 112.705 112.244 113.361 112.244C113.993 112.244 114.557 112.38 115.053 112.652C115.557 112.924 115.945 113.312 116.217 113.816C116.497 114.312 116.637 114.884 116.637 115.532ZM114.897 115.052C114.889 114.62 114.733 114.276 114.429 114.02C114.125 113.756 113.753 113.624 113.313 113.624C112.897 113.624 112.545 113.752 112.257 114.008C111.977 114.256 111.805 114.604 111.741 115.052H114.897ZM119.543 113.384C119.759 113.032 120.039 112.756 120.383 112.556C120.735 112.356 121.135 112.256 121.583 112.256V114.02H121.139C120.611 114.02 120.211 114.144 119.939 114.392C119.675 114.64 119.543 115.072 119.543 115.688V119H117.863V112.352H119.543V113.384Z" fill="white"/>
</g>
<defs>
<clipPath id="clip0_201_51">
<rect width="126" height="126" fill="white"/>
</clipPath>
</defs>
</svg>
