<svg width="126" height="126" viewBox="0 0 126 126" fill="none" xmlns="http://www.w3.org/2000/svg">
<rect width="126" height="126" rx="10" fill="#1F2233"/>
<path d="M62.7022 92C62.3821 92 62.0833 91.9144 61.8057 91.7646L58.967 90.0732C58.54 89.8376 58.7535 89.752 58.8817 89.7092C59.4579 89.5166 59.5646 89.4736 60.1622 89.1313C60.2263 89.0883 60.3118 89.1098 60.3757 89.1526L62.5529 90.4586C62.6383 90.5014 62.745 90.5014 62.8089 90.4586L71.3255 85.5128C71.4108 85.47 71.4537 85.3842 71.4537 85.2774V75.4074C71.4537 75.3001 71.4108 75.2147 71.3255 75.1717L62.8089 70.2475C62.7236 70.2045 62.6168 70.2045 62.5529 70.2475L54.0363 75.1717C53.951 75.2145 53.9082 75.3216 53.9082 75.4072V85.2772C53.9082 85.3629 53.951 85.4698 54.0363 85.5128L56.363 86.8616C57.6223 87.5039 58.412 86.7545 58.412 86.0052V76.2636C58.412 76.1352 58.5188 76.0066 58.6682 76.0066H59.7567C59.8848 76.0066 60.0128 76.1137 60.0128 76.2636V86.0052C60.0128 87.6965 59.095 88.6815 57.4941 88.6815C57.0033 88.6815 56.6191 88.6815 55.5304 88.1461L53.2893 86.8616C52.7343 86.5406 52.3929 85.9409 52.3929 85.2987V75.4287C52.3929 74.7864 52.7343 74.1868 53.2893 73.8657L61.8057 68.92C62.3394 68.6203 63.0652 68.6203 63.5988 68.92L72.1152 73.8657C72.6702 74.1868 73.0118 74.7864 73.0118 75.4287V85.2987C73.0118 85.9409 72.6702 86.5406 72.1152 86.8616L63.5988 91.8073C63.3212 91.9359 63.0012 92 62.7023 92H62.7022ZM65.3276 85.2131C61.5924 85.2131 60.8239 83.5003 60.8239 82.0444C60.8239 81.9159 60.9307 81.7875 61.0801 81.7875H62.19C62.318 81.7875 62.4248 81.8731 62.4248 82.0016C62.5956 83.1363 63.0865 83.6929 65.349 83.6929C67.1419 83.6929 67.9106 83.2861 67.9106 82.3227C67.9106 81.766 67.6969 81.3594 64.9008 81.0809C62.5742 80.8453 61.1228 80.3316 61.1228 78.469C61.1228 76.7347 62.5744 75.7069 65.0075 75.7069C67.7395 75.7069 69.0844 76.6491 69.2552 78.7042C69.2552 78.7687 69.2338 78.8328 69.1911 78.8971C69.1483 78.9399 69.0844 78.9826 69.0203 78.9826H67.9104C67.8036 78.9826 67.6969 78.8971 67.6756 78.79C67.4195 77.6126 66.7578 77.2271 65.0075 77.2271C63.0438 77.2271 62.8089 77.9123 62.8089 78.426C62.8089 79.0469 63.0865 79.2396 65.7332 79.5821C68.3586 79.9248 69.5967 80.4172 69.5967 82.2584C69.5753 84.1425 68.0385 85.2131 65.3276 85.2131Z" fill="#539E43"/>
<path d="M36.2775 53.3977C36.2775 53.0124 36.064 52.6482 35.7225 52.4555L26.6724 47.2316C26.5228 47.1458 26.3522 47.103 26.1815 47.0815H26.096C25.9254 47.0815 25.7545 47.1458 25.6051 47.2316L16.555 52.4555C16.2133 52.6482 16 53.0122 16 53.3977L16.0214 67.4426C16.0214 67.6353 16.1282 67.828 16.2988 67.9137C16.4696 68.0208 16.683 68.0208 16.8325 67.9137L22.2114 64.8306C22.5529 64.638 22.7664 64.274 22.7664 63.8887V57.3157C22.7664 56.9304 22.9797 56.5664 23.3213 56.3737L25.6051 55.0462C25.7759 54.9392 25.968 54.8962 26.1601 54.8962C26.3522 54.8962 26.5442 54.9392 26.6938 55.0462L28.9776 56.3737C29.3192 56.5664 29.5326 56.9302 29.5326 57.3157V63.8887C29.5326 64.274 29.746 64.638 30.0875 64.8306L35.4664 67.9137C35.6372 68.0208 35.8505 68.0208 36.0213 67.9137C36.1922 67.828 36.2989 67.6353 36.2989 67.4426L36.2775 53.3977ZM79.778 34.0643C79.6074 33.9786 79.3939 33.9786 79.2443 34.0643C79.0736 34.1714 78.9669 34.3426 78.9669 34.5352V48.452C78.9669 48.5803 78.903 48.7087 78.7748 48.7945C78.6468 48.8586 78.5186 48.8586 78.3907 48.7945L76.1281 47.4885C75.9623 47.3938 75.7747 47.3439 75.5838 47.3439C75.3929 47.3439 75.2053 47.3938 75.0394 47.4885L65.9893 52.734C65.6478 52.9266 65.4343 53.2906 65.4343 53.676V64.1454C65.4343 64.5307 65.6478 64.8949 65.9893 65.0876L75.0394 70.3331C75.2053 70.4278 75.3929 70.4776 75.5838 70.4776C75.7747 70.4776 75.9623 70.4278 76.1281 70.3331L85.1783 65.0876C85.5198 64.8949 85.7332 64.5309 85.7332 64.1454V38.0466C85.7332 37.6398 85.5198 37.276 85.1783 37.0831L79.7782 34.0643H79.778ZM78.9456 60.6985C78.9456 60.8056 78.903 60.8912 78.8175 60.934L75.7226 62.7323C75.6793 62.7535 75.6319 62.7645 75.5838 62.7645C75.5357 62.7645 75.4882 62.7535 75.445 62.7323L72.3501 60.934C72.2646 60.8912 72.2219 60.7841 72.2219 60.6985V57.1016C72.2219 56.9945 72.2646 56.9089 72.3501 56.8661L75.445 55.0675C75.4882 55.0464 75.5357 55.0354 75.5838 55.0354C75.6319 55.0354 75.6793 55.0464 75.7226 55.0675L78.8175 56.8661C78.903 56.9087 78.9456 57.016 78.9456 57.1016V60.6985ZM109.895 57.016C110.237 56.8233 110.429 56.4593 110.429 56.0738V53.5261C110.429 53.1408 110.216 52.7768 109.895 52.5841L100.909 47.3601C100.743 47.2654 100.556 47.2156 100.365 47.2156C100.174 47.2156 99.9866 47.2654 99.8208 47.3601L90.7706 52.6054C90.429 52.7981 90.2157 53.1621 90.2157 53.5476V64.017C90.2157 64.4024 90.429 64.7664 90.7706 64.959L99.7567 70.0974C100.098 70.2901 100.504 70.2901 100.824 70.0974L106.267 67.0575C106.438 66.9717 106.544 66.7791 106.544 66.5864C106.544 66.3938 106.438 66.2011 106.267 66.1153L97.1739 60.8699C97.0033 60.763 96.8965 60.5916 96.8965 60.399V57.1232C96.8965 56.9306 97.0033 56.7379 97.1739 56.6521L100.013 55.0249C100.096 54.9725 100.192 54.9446 100.29 54.9446C100.389 54.9446 100.485 54.9725 100.568 55.0249L103.407 56.6521C103.577 56.7592 103.684 56.9304 103.684 57.1232V59.6924C103.684 59.8851 103.791 60.0777 103.962 60.1633C104.132 60.2704 104.346 60.2704 104.516 60.1633L109.895 57.016V57.016Z" fill="white"/>
<path d="M100.226 56.5236C100.258 56.5027 100.295 56.4915 100.333 56.4915C100.371 56.4915 100.408 56.5027 100.44 56.5236L102.169 57.5298C102.233 57.5725 102.275 57.6367 102.275 57.7225V59.735C102.275 59.8206 102.233 59.8849 102.169 59.9277L100.44 60.934C100.408 60.9549 100.371 60.966 100.333 60.966C100.295 60.966 100.258 60.9549 100.226 60.934L98.4974 59.9277C98.4333 59.8849 98.3907 59.8206 98.3907 59.735V57.7225C98.3907 57.6367 98.4333 57.5725 98.4974 57.5298L100.226 56.5236V56.5236Z" fill="#539E43"/>
<mask id="mask0" style="mask-type:alpha" maskUnits="userSpaceOnUse" x="40" y="47" width="21" height="24">
<path d="M51.4109 47.4029C51.245 47.3082 51.0574 47.2584 50.8666 47.2584C50.6758 47.2584 50.4882 47.3082 50.3223 47.4029L41.3363 52.6052C40.9946 52.7979 40.8026 53.1619 40.8026 53.5472V63.974C40.8026 64.3594 41.0161 64.7234 41.3363 64.916L50.3223 70.1187C50.4882 70.2134 50.6758 70.2632 50.8666 70.2632C51.0574 70.2632 51.245 70.2134 51.4109 70.1187L60.3971 64.916C60.7386 64.7234 60.9308 64.3594 60.9308 63.974V53.5474C60.9308 53.1621 60.7172 52.798 60.3971 52.6054L51.4109 47.4029Z" fill="white"/>
</mask>
<g mask="url(#mask0)">
<path d="M51.4109 47.4029C51.245 47.3082 51.0574 47.2584 50.8666 47.2584C50.6758 47.2584 50.4882 47.3082 50.3223 47.4029L41.3363 52.6052C40.9946 52.7979 40.8026 53.1619 40.8026 53.5472V63.974C40.8026 64.3594 41.0161 64.7234 41.3363 64.916L50.3223 70.1187C50.4882 70.2134 50.6758 70.2632 50.8666 70.2632C51.0574 70.2632 51.245 70.2134 51.4109 70.1187L60.3971 64.916C60.7386 64.7234 60.9308 64.3594 60.9308 63.974V53.5474C60.9308 53.1621 60.7172 52.798 60.3971 52.6054L51.4109 47.4029Z" fill="url(#paint0_linear)"/>
<path d="M60.4184 52.6054L51.3897 47.4029C51.301 47.3579 51.208 47.3221 51.1121 47.2958L40.9947 64.6809C41.0785 64.7836 41.1797 64.8706 41.2937 64.9379L50.3224 70.1406C50.5786 70.2904 50.8774 70.3332 51.1548 70.2474L60.6533 52.8197C60.5892 52.7341 60.5037 52.6697 60.4184 52.6056V52.6054Z" fill="url(#paint1_linear)"/>
<path fill-rule="evenodd" clip-rule="evenodd" d="M60.4398 64.9162C60.6959 64.7664 60.888 64.5094 60.9735 64.2312L51.0692 47.2743C50.813 47.2315 50.5355 47.2528 50.3009 47.4027L41.3361 52.5841L51.0051 70.2688C51.1457 70.2457 51.2823 70.2024 51.4107 70.1404L60.4396 64.9164L60.4398 64.9162Z" fill="url(#paint2_linear)"/>
<path fill-rule="evenodd" clip-rule="evenodd" d="M60.4398 64.9162L51.4323 70.1189C51.3052 70.1839 51.1681 70.2273 51.0268 70.2473L51.1976 70.5685L61.1869 64.7665V64.638L60.9307 64.2097C60.8881 64.5094 60.696 64.7664 60.4398 64.9162V64.9162Z" fill="url(#paint3_linear)"/>
<path fill-rule="evenodd" clip-rule="evenodd" d="M60.4398 64.9162L51.4323 70.1189C51.3052 70.1839 51.1681 70.2273 51.0268 70.2473L51.1976 70.5685L61.1869 64.7665V64.638L60.9307 64.2097C60.8881 64.5094 60.696 64.7664 60.4398 64.9162V64.9162Z" fill="url(#paint4_linear)"/>
</g>
<defs>
<linearGradient id="paint0_linear" x1="54.5276" y1="51.2812" x2="44.6351" y2="66.7779" gradientUnits="userSpaceOnUse">
<stop stop-color="#41873F"/>
<stop offset="0.3288" stop-color="#418B3D"/>
<stop offset="0.6352" stop-color="#419637"/>
<stop offset="0.9319" stop-color="#3FA92D"/>
<stop offset="1" stop-color="#3FAE2A"/>
</linearGradient>
<linearGradient id="paint1_linear" x1="49.5024" y1="59.9821" x2="74.2045" y2="46.6023" gradientUnits="userSpaceOnUse">
<stop offset="0.1376" stop-color="#41873F"/>
<stop offset="0.4032" stop-color="#54A044"/>
<stop offset="0.7136" stop-color="#66B848"/>
<stop offset="0.9081" stop-color="#6CC04A"/>
</linearGradient>
<linearGradient id="paint2_linear" x1="40.4742" y1="58.7611" x2="61.2679" y2="58.7611" gradientUnits="userSpaceOnUse">
<stop offset="0.09192" stop-color="#6CC04A"/>
<stop offset="0.2864" stop-color="#66B848"/>
<stop offset="0.5968" stop-color="#54A044"/>
<stop offset="0.8624" stop-color="#41873F"/>
</linearGradient>
<linearGradient id="paint3_linear" x1="40.4744" y1="67.4066" x2="61.2678" y2="67.4066" gradientUnits="userSpaceOnUse">
<stop offset="0.09192" stop-color="#6CC04A"/>
<stop offset="0.2864" stop-color="#66B848"/>
<stop offset="0.5968" stop-color="#54A044"/>
<stop offset="0.8624" stop-color="#41873F"/>
</linearGradient>
<linearGradient id="paint4_linear" x1="64.2972" y1="50.7882" x2="58.9982" y2="78.4699" gradientUnits="userSpaceOnUse">
<stop stop-color="#41873F"/>
<stop offset="0.3288" stop-color="#418B3D"/>
<stop offset="0.6352" stop-color="#419637"/>
<stop offset="0.9319" stop-color="#3FA92D"/>
<stop offset="1" stop-color="#3FAE2A"/>
</linearGradient>
</defs>
</svg>
