<svg width="126" height="126" viewBox="0 0 126 126" fill="none" xmlns="http://www.w3.org/2000/svg">
<rect width="126" height="126" rx="10" fill="#1F2233"/>
<path d="M63 85.7318C87.3005 85.7318 107 75.4944 107 62.8659C107 50.2374 87.3005 40 63 40C38.6995 40 19 50.2374 19 62.8659C19 75.4944 38.6995 85.7318 63 85.7318Z" fill="#8993BE"/>
<path fill-rule="evenodd" clip-rule="evenodd" d="M31.3561 76.4049L36.1782 52.0345H47.3284C52.1502 52.3355 54.5613 54.7422 54.5613 58.9547C54.5613 66.1755 48.8354 70.3876 43.7118 70.0867H38.2878L37.0823 76.4049H31.3561ZM39.493 65.5739L41 56.5477H44.9177C47.0273 56.5477 48.5339 57.4502 48.5339 59.2553C48.2328 64.3704 45.8218 65.2729 43.1096 65.5739H39.4933H39.493ZM53.441 70.0867L58.2628 45.7166H63.9889L62.7834 52.0345H68.2078C73.0299 52.3355 74.838 54.7422 74.2354 57.7512L72.1258 70.0867H66.0985L68.2081 58.9547C68.5093 57.4502 68.5093 56.5477 66.4 56.5477H61.8793L59.1672 70.0867H53.441V70.0867ZM71.7398 76.4049L76.5616 52.0345H87.7122C92.5343 52.3355 94.9453 54.7422 94.9453 58.9547C94.9453 66.1755 89.2191 70.3876 84.0959 70.0867H78.6712L77.4657 76.4049H71.7398V76.4049ZM79.8764 65.5739L81.3834 56.5477H85.3014C87.411 56.5477 88.9177 57.4502 88.9177 59.2553C88.6166 64.3704 86.2055 65.2729 83.4933 65.5739H79.8767H79.8764Z" fill="#232531"/>
</svg>
