<svg width="126" height="126" viewBox="0 0 126 126" fill="none" xmlns="http://www.w3.org/2000/svg">
<rect width="126" height="126" rx="10" fill="#1F2233"/>
<path d="M89.0138 43.0244C84.9639 37.7801 79.4497 33.8546 73.1687 31.7443C66.8877 29.6341 60.122 29.4339 53.7272 31.169C47.3323 32.9042 41.5957 36.4968 37.2428 41.4925C32.8899 46.4881 30.1163 52.6624 29.2727 59.2345C28.429 65.8067 29.5533 72.4813 32.5034 78.4144C35.4534 84.3475 40.0967 89.2725 45.8459 92.5666C51.5951 95.8606 58.1921 97.3757 64.8025 96.9202C71.4128 96.4648 77.7396 94.0592 82.9828 90.0078C97.618 78.6974 100.319 57.6649 89.0127 43.0244H89.0138Z" fill="#FF6C37"/>
<path d="M73.7986 51.3449L59.6733 65.5823L55.6815 61.4786C69.5839 47.5762 70.9794 48.8324 73.7997 51.3449H73.7986Z" fill="white"/>
<path d="M59.6732 65.9717C59.5481 65.9687 59.4286 65.919 59.3382 65.8325L55.3183 61.8125C55.2277 61.7188 55.1772 61.5937 55.1772 61.4634C55.1772 61.3331 55.2277 61.208 55.3183 61.1143C69.0249 47.4076 70.8956 48.0494 74.1336 50.9806C74.1878 51.024 74.2312 51.0794 74.2602 51.1425C74.2893 51.2055 74.3033 51.2745 74.3011 51.3439C74.322 51.48 74.2697 51.6192 74.1618 51.7071L60.0365 65.8335C59.9374 65.9244 59.8076 65.9741 59.6732 65.9728V65.9717ZM56.3787 61.4775L59.6732 64.772L73.0731 51.3721C72.6104 50.7923 71.9503 50.4034 71.2189 50.2798C70.4874 50.1562 69.7361 50.3066 69.1086 50.7021C66.6799 51.7909 62.7719 55.1126 56.3787 61.4775V61.4775Z" fill="#FF6C37"/>
<path d="M63.7215 69.5185L59.869 65.5823L73.9944 51.6234C77.7914 55.3366 72.1519 61.5341 63.7215 69.5175V69.5185Z" fill="white"/>
<path d="M63.7215 70.021C63.5979 70.0112 63.4806 69.9624 63.3865 69.8818L59.4502 66.0293C59.3912 65.8861 59.3912 65.7254 59.4502 65.5823C59.4084 65.4648 59.4084 65.3365 59.4502 65.219L73.5756 51.0937C73.6738 51.0014 73.8036 50.95 73.9383 50.95C74.0731 50.95 74.2029 51.0014 74.3011 51.0937C74.7585 51.5147 75.1199 52.0293 75.3607 52.6025C75.6015 53.1756 75.7161 53.794 75.6966 54.4154C75.6966 58.1841 71.3971 62.9295 64.0837 69.8535C63.986 69.9502 63.8574 70.0095 63.7204 70.021H63.7215ZM60.5945 65.5823L63.7487 68.7354C69.3316 63.4592 74.6643 58.0155 74.6916 54.3306C74.7219 53.5494 74.4637 52.7843 73.9661 52.1813L60.5945 65.5823Z" fill="#FF6C37"/>
<path d="M55.7925 61.5623L58.5845 64.3543C58.6023 64.37 58.6166 64.3894 58.6264 64.411C58.6362 64.4327 58.6412 64.4562 58.6412 64.4799C58.6412 64.5037 58.6362 64.5272 58.6264 64.5489C58.6166 64.5705 58.6023 64.5898 58.5845 64.6056L52.6938 65.8618C52.5749 65.8875 52.4508 65.8736 52.3406 65.8222C52.2303 65.7709 52.1398 65.6849 52.0829 65.5774C52.026 65.4699 52.0058 65.3467 52.0254 65.2266C52.0449 65.1066 52.1032 64.9962 52.1913 64.9123L55.625 61.5068C55.625 61.5068 55.737 61.5068 55.7925 61.5623Z" fill="white"/>
<path d="M52.5545 66.4198C52.3684 66.4174 52.186 66.3674 52.0247 66.2745C51.8634 66.1816 51.7287 66.0489 51.6333 65.889C51.5259 65.6865 51.487 65.4548 51.5223 65.2283C51.5576 65.0019 51.6652 64.793 51.829 64.6328L55.2345 61.1991C55.3573 61.0893 55.5163 61.0286 55.681 61.0286C55.8457 61.0286 56.0047 61.0893 56.1275 61.1991L58.9195 63.991C59.0849 64.1481 59.1498 64.3857 59.087 64.6056C59.0242 64.8254 58.8399 65.0002 58.6127 65.0526L52.722 66.3088L52.5545 66.4198ZM55.6815 62.1768L52.5273 65.331L57.748 64.214L55.6815 62.1768Z" fill="#FF6C37"/>
<path d="M81.3088 43.4997C79.2884 41.5504 76.1143 41.4688 73.9954 43.3081C71.8765 45.1475 71.5143 48.3048 73.1642 50.5765C74.8141 52.8482 77.9243 53.4847 80.3321 52.0421L76.5351 48.2451L81.3088 43.4997Z" fill="white"/>
<path d="M77.5401 53.3256C76.3793 53.3107 75.2485 52.9546 74.2887 52.3015C73.3289 51.6485 72.5825 50.7275 72.1425 49.6532C71.7027 48.5797 71.5874 47.4009 71.8107 46.2625C72.0339 45.1242 72.5861 44.0763 73.3987 43.2484C74.5164 42.1513 76.02 41.5366 77.5862 41.5366C79.1524 41.5366 80.656 42.1513 81.7736 43.2484C81.8804 43.3385 81.9411 43.4714 81.9411 43.6117C81.9409 43.6807 81.9258 43.7489 81.8969 43.8116C81.868 43.8742 81.826 43.93 81.7736 43.975L77.2512 48.2462L80.6849 51.6244C80.7405 51.6775 80.7823 51.7435 80.8066 51.8165C80.8309 51.8895 80.8369 51.9673 80.8241 52.0432C80.8159 52.1164 80.7916 52.1868 80.7531 52.2496C80.7145 52.3124 80.6627 52.3659 80.6012 52.4064C79.6787 52.983 78.6182 53.3012 77.5307 53.3277L77.5401 53.3256ZM77.5401 42.4937C75.5511 42.5041 73.7714 43.7007 73.025 45.5296C72.2786 47.3584 72.6847 49.4637 74.0792 50.8686C74.7727 51.5662 75.6608 52.0381 76.6271 52.2225C77.5934 52.4068 78.5929 52.2951 79.4946 51.9018L76.2001 48.6074C76.1477 48.5655 76.1055 48.5124 76.0764 48.4519C76.0474 48.3915 76.0323 48.3253 76.0323 48.2582C76.0323 48.1912 76.0474 48.125 76.0764 48.0645C76.1055 48.0041 76.1477 47.951 76.2001 47.9091L80.5551 43.5259C79.6894 42.8624 78.6308 42.4996 77.5401 42.4926V42.4937Z" fill="#FF6C37"/>
<path d="M81.3926 43.5834L76.6189 48.3289L80.4158 52.1259C80.798 51.9065 81.1538 51.6441 81.4763 51.3439C82.4714 50.292 83.019 48.8946 83.0034 47.4467C82.9877 45.9988 82.4102 44.6136 81.3926 43.5834V43.5834Z" fill="white"/>
<path d="M80.3311 52.5446C80.2684 52.548 80.2057 52.5373 80.1477 52.5132C80.0897 52.4891 80.0379 52.4522 79.9961 52.4054L76.1991 48.6084C76.1467 48.5665 76.1044 48.5134 76.0754 48.453C76.0463 48.3925 76.0312 48.3263 76.0312 48.2593C76.0312 48.1922 76.0463 48.126 76.0754 48.0656C76.1044 48.0051 76.1467 47.952 76.1991 47.9101L80.9445 43.2484C80.9904 43.1793 81.0526 43.1227 81.1256 43.0834C81.1987 43.0442 81.2803 43.0237 81.3633 43.0237C81.4462 43.0237 81.5278 43.0442 81.6009 43.0834C81.674 43.1227 81.7362 43.1793 81.782 43.2484C82.3391 43.7943 82.7817 44.4458 83.0838 45.1648C83.386 45.8839 83.5416 46.656 83.5416 47.4359C83.5416 48.2158 83.386 48.9879 83.0838 49.707C82.7817 50.426 82.3391 51.0775 81.782 51.6234C81.4534 51.9719 81.0774 52.2725 80.665 52.5164C80.5612 52.5687 80.4411 52.5788 80.33 52.5446H80.3311ZM77.2606 48.2462L80.4148 51.4004C80.6318 51.2483 80.8372 51.0804 81.0293 50.8979C81.9566 49.9732 82.4788 48.7182 82.4813 47.4087C82.4835 46.2368 82.0563 45.1046 81.2806 44.2262L77.2606 48.2462Z" fill="#FF6C37"/>
<path d="M74.3848 51.9312C74.0067 51.5761 73.5075 51.3784 72.9889 51.3784C72.4702 51.3784 71.971 51.5761 71.5929 51.9312L58.9478 64.548L61.0415 66.67L74.4131 54.9451C74.617 54.7496 74.7788 54.5145 74.8884 54.2542C74.998 53.9939 75.0532 53.7139 75.0506 53.4315C75.0479 53.149 74.9875 52.8701 74.873 52.6119C74.7585 52.3537 74.5924 52.1217 74.3848 51.9301V51.9312Z" fill="white"/>
<path d="M60.9294 67.1735C60.8043 67.1705 60.6849 67.1208 60.5944 67.0343L58.4724 64.9123C58.3819 64.8186 58.3313 64.6934 58.3313 64.5632C58.3313 64.4329 58.3819 64.3077 58.4724 64.214L71.1186 51.6234C71.4828 51.2596 71.948 51.0136 72.4537 50.9173C72.9595 50.8211 73.4824 50.879 73.9549 51.0835C74.4273 51.2881 74.8274 51.6299 75.1032 52.0646C75.379 52.4993 75.5179 53.0068 75.5018 53.5213C75.4873 53.8706 75.4033 54.2135 75.2546 54.5298C75.106 54.8462 74.8957 55.1297 74.6361 55.3638L61.2644 67.0887C61.1672 67.1576 61.0476 67.1874 60.9294 67.1725V67.1735ZM59.4502 64.548L60.8457 65.9717L73.9661 54.5536C74.2906 54.2709 74.4843 53.8668 74.4968 53.4365C74.5094 53.0063 74.3398 52.5854 74.0226 52.2923C73.7297 52.0006 73.3331 51.8368 72.9197 51.8368C72.5063 51.8368 72.1098 52.0006 71.8168 52.2923L59.4502 64.548Z" fill="#FF6C37"/>
<path d="M49.1491 78.9257C49.1134 78.9742 49.0941 79.0329 49.0941 79.0932C49.0941 79.1534 49.1134 79.2121 49.1491 79.2607L49.7071 81.6894C49.7294 81.8323 49.7082 81.9786 49.6462 82.1094C49.5842 82.2401 49.4843 82.3491 49.3595 82.4222C49.2351 82.4949 49.0909 82.5263 48.9475 82.5119C48.8042 82.4974 48.6691 82.4377 48.5618 82.3416L44.7376 78.6566L56.6582 66.6417H60.7902L63.5822 69.4337C59.2269 73.2416 54.3708 76.4352 49.1491 78.9257V78.9257Z" fill="white"/>
<path d="M48.8978 83.0294C48.5817 83.0231 48.2697 82.8933 48.0603 82.6661L44.4036 79.0094C44.3513 78.9675 44.309 78.9144 44.2799 78.854C44.2509 78.7935 44.2358 78.7273 44.2358 78.6603C44.2358 78.5932 44.2509 78.527 44.2799 78.4666C44.309 78.4061 44.3513 78.353 44.4036 78.3111L56.407 66.2795C56.4742 66.2081 56.562 66.1594 56.6582 66.1403H60.8174C60.9258 66.102 61.0441 66.102 61.1524 66.1403L63.9444 68.9323C63.9975 68.9812 64.0379 69.0423 64.0622 69.1103C64.0864 69.1784 64.0938 69.2513 64.0837 69.3227C64.0856 69.3921 64.0715 69.461 64.0425 69.524C64.0134 69.587 63.9702 69.6425 63.9162 69.686L63.6932 69.8818C59.3203 73.5273 54.5094 76.6125 49.3721 79.0659L49.9028 81.3272C49.9438 81.5016 49.9454 81.683 49.9074 81.8581C49.8694 82.0332 49.7928 82.1977 49.6832 82.3394C49.5735 82.4811 49.4336 82.5966 49.2737 82.6774C49.1137 82.7582 48.9377 82.8023 48.7586 82.8064L48.8978 83.0294ZM45.4924 78.6461L48.7858 81.9678C48.8165 81.9952 48.8562 82.0103 48.8973 82.0103C48.9384 82.0103 48.9781 81.9952 49.0088 81.9678C49.0293 81.9393 49.0404 81.9051 49.0404 81.87C49.0404 81.8348 49.0293 81.8006 49.0088 81.7721L48.4508 79.3433C48.4068 79.169 48.4245 78.9849 48.5008 78.8221C48.5772 78.6594 48.7074 78.528 48.8696 78.4504C53.8688 76.0297 58.5557 73.0112 62.8274 69.4609L60.5379 67.1714H56.7975L45.4924 78.6461Z" fill="#FF6C37"/>
<path d="M41.8629 81.5219L44.6549 78.7299L48.9543 83.0294L42.1152 82.5551C41.9977 82.5459 41.8862 82.4999 41.7965 82.4235C41.7068 82.3472 41.6435 82.2445 41.6157 82.13C41.5878 82.0156 41.5968 81.8953 41.6414 81.7862C41.686 81.6772 41.7639 81.5851 41.8639 81.5229L41.8629 81.5219Z" fill="white"/>
<path d="M49.0371 83.4481L42.2251 82.9739C41.821 82.9362 41.4735 82.6598 41.3311 82.2903C41.1887 81.9207 41.2756 81.4821 41.5551 81.1869L44.3471 78.3949C44.4408 78.3044 44.566 78.2538 44.6963 78.2538C44.8265 78.2538 44.9517 78.3044 45.0454 78.3949L49.3166 82.6661C49.3757 82.7471 49.4076 82.8448 49.4076 82.9451C49.4076 83.0454 49.3757 83.1431 49.3166 83.2241C49.252 83.3285 49.1532 83.4073 49.0371 83.4471V83.4481ZM42.2251 81.8852L47.8081 82.2484L44.7376 79.3727L42.2251 81.8852Z" fill="#FF6C37"/>
<path d="M61.1807 66.9788L55.5413 67.8446L58.8075 64.6066L61.1807 66.9788Z" fill="white"/>
<path d="M55.5413 68.3732C55.4475 68.3757 55.3552 68.3505 55.2757 68.3008C55.1962 68.2511 55.1331 68.1791 55.0942 68.0937C55.0348 68.0129 55.0027 67.9151 55.0027 67.8147C55.0027 67.7144 55.0348 67.6166 55.0942 67.5358L58.3322 64.2695C58.4304 64.1772 58.5601 64.1258 58.6949 64.1258C58.8297 64.1258 58.9594 64.1772 59.0577 64.2695L61.432 66.6417C61.4794 66.7169 61.5045 66.8041 61.5045 66.893C61.5045 66.9819 61.4794 67.069 61.432 67.1442C61.4087 67.2359 61.3595 67.3189 61.2902 67.3834C61.221 67.4478 61.1346 67.4909 61.0415 67.5075L55.4586 68.3732H55.5413ZM58.8075 65.33L56.9933 67.1442L60.1202 66.67L58.8075 65.33Z" fill="#FF6C37"/>
<path d="M61.1807 66.9767L57.2445 67.4792C57.1392 67.5031 57.0289 67.4925 56.9301 67.4488C56.8313 67.4051 56.7492 67.3308 56.696 67.2368C56.6428 67.1428 56.6213 67.0342 56.6346 66.927C56.648 66.8198 56.6956 66.7198 56.7703 66.6417L58.8085 64.6035L61.1807 66.9767Z" fill="white"/>
<path d="M57.1325 68.011C56.95 68.0093 56.7713 67.9593 56.6145 67.866C56.4576 67.7728 56.3283 67.6397 56.2395 67.4803C56.1329 67.2892 56.0916 67.0685 56.1218 66.8518C56.1521 66.6351 56.2522 66.4341 56.407 66.2795L58.4453 64.2413C58.5435 64.149 58.6732 64.0976 58.808 64.0976C58.9428 64.0976 59.0725 64.149 59.1708 64.2413L61.544 66.6145C61.6146 66.6814 61.6642 66.7673 61.687 66.8618C61.7097 66.9564 61.7045 67.0555 61.672 67.1471C61.6396 67.2387 61.5812 67.319 61.504 67.3781C61.4269 67.4373 61.3342 67.4728 61.2373 67.4803L57.3293 67.9828L57.1325 68.011ZM57.1325 66.9778L60.092 66.6145L58.7803 65.3028L57.1053 66.9778H57.1325ZM81.4198 46.7942C81.3672 46.7061 81.2841 46.6404 81.1863 46.6095C81.0884 46.5786 80.9827 46.5847 80.889 46.6267C80.8428 46.6501 80.8018 46.6826 80.7683 46.7221C80.7349 46.7617 80.7097 46.8075 80.6943 46.857C80.6632 46.9568 80.673 47.0649 80.7215 47.1575C80.9173 47.5689 80.8629 48.0557 80.5823 48.4137C80.5475 48.4482 80.5202 48.4895 80.5021 48.5351C80.4841 48.5807 80.4758 48.6296 80.4776 48.6785C80.4786 48.7767 80.5159 48.8711 80.5823 48.9434C80.6539 48.9717 80.7336 48.9717 80.8053 48.9434C80.8703 48.9597 80.9385 48.9579 81.0026 48.9382C81.0666 48.9184 81.124 48.8815 81.1685 48.8314C81.3984 48.5499 81.544 48.2092 81.5885 47.8485C81.6329 47.4879 81.5744 47.122 81.4198 46.7931V46.7942Z" fill="#FF6C37"/>
</svg>
