<svg width="126" height="126" viewBox="0 0 126 126" fill="none" xmlns="http://www.w3.org/2000/svg">
<rect width="126" height="126" rx="10" fill="#1F2233"/>
<path d="M62.4335 30C45.8467 30 46.8823 37.1933 46.8823 37.1933L46.9007 44.6457H62.7292V46.8831H40.6139C40.6139 46.8831 30 45.6793 30 62.4158C30 79.1528 39.2641 78.5593 39.2641 78.5593H44.7928V70.7926C44.7928 70.7926 44.4948 61.5283 53.909 61.5283H69.6081C69.6081 61.5283 78.4283 61.6708 78.4283 53.0036V38.6728C78.4283 38.6728 79.7678 30 62.4335 30ZM53.7056 35.0116C54.0797 35.0113 54.4501 35.0847 54.7957 35.2277C55.1414 35.3707 55.4554 35.5804 55.7199 35.8449C55.9844 36.1094 56.1941 36.4235 56.3371 36.7691C56.4801 37.1147 56.5535 37.4852 56.5532 37.8592C56.5535 38.2333 56.4801 38.6037 56.3371 38.9494C56.1941 39.295 55.9844 39.6091 55.7199 39.8736C55.4554 40.1381 55.1414 40.3478 54.7957 40.4908C54.4501 40.6338 54.0797 40.7072 53.7056 40.7069C53.3316 40.7072 52.9612 40.6338 52.6155 40.4908C52.2699 40.3478 51.9559 40.1381 51.6914 39.8736C51.4269 39.6091 51.2172 39.295 51.0742 38.9494C50.9312 38.6037 50.8578 38.2333 50.8581 37.8592C50.8578 37.4852 50.9312 37.1147 51.0742 36.7691C51.2172 36.4235 51.4269 36.1094 51.6914 35.8449C51.9559 35.5804 52.2699 35.3707 52.6155 35.2277C52.9612 35.0847 53.3316 35.0113 53.7056 35.0116V35.0116Z" fill="url(#paint0_linear)"/>
<path d="M62.9045 95C79.4913 95 78.4556 87.8067 78.4556 87.8067L78.4372 80.3546H62.6085V78.1172H84.7238C84.7238 78.1172 95.3377 79.3209 95.3377 62.5839C95.3377 45.8472 86.0736 46.4407 86.0736 46.4407H80.5448V54.2071C80.5448 54.2071 80.8429 63.4715 71.4287 63.4715H55.7296C55.7296 63.4715 46.9094 63.329 46.9094 71.9964V86.3274C46.9094 86.3274 45.5701 95 62.9042 95H62.9045ZM71.6323 89.9889C71.2583 89.9892 70.8878 89.9158 70.5422 89.7728C70.1966 89.6298 69.8825 89.4201 69.618 89.1556C69.3536 88.8911 69.1438 88.5771 69.0008 88.2314C68.8579 87.8858 68.7844 87.5153 68.7848 87.1413C68.7844 86.7672 68.8578 86.3967 69.0008 86.0511C69.1437 85.7054 69.3535 85.3913 69.618 85.1268C69.8824 84.8623 70.1965 84.6525 70.5421 84.5095C70.8878 84.3665 71.2582 84.2931 71.6323 84.2934C72.0063 84.2931 72.3768 84.3665 72.7224 84.5095C73.068 84.6525 73.3821 84.8622 73.6466 85.1267C73.911 85.3912 74.1208 85.7052 74.2638 86.0509C74.4068 86.3965 74.4802 86.767 74.4798 87.141C74.4802 87.5151 74.4068 87.8855 74.2638 88.2312C74.1208 88.5768 73.911 88.8908 73.6466 89.1553C73.3821 89.4198 73.068 89.6296 72.7224 89.7726C72.3768 89.9155 72.0063 89.989 71.6323 89.9886V89.9889Z" fill="url(#paint1_linear)"/>
<defs>
<linearGradient id="paint0_linear" x1="36.2789" y1="35.8464" x2="68.6593" y2="67.9027" gradientUnits="userSpaceOnUse">
<stop stop-color="#387EB8"/>
<stop offset="1" stop-color="#366994"/>
</linearGradient>
<linearGradient id="paint1_linear" x1="56.1534" y1="56.4317" x2="90.9262" y2="89.3024" gradientUnits="userSpaceOnUse">
<stop stop-color="#FFE052"/>
<stop offset="1" stop-color="#FFC331"/>
</linearGradient>
</defs>
</svg>
