<svg width="126" height="126" viewBox="0 0 126 126" fill="none" xmlns="http://www.w3.org/2000/svg">
<rect width="126" height="126" rx="10" fill="#1F2233"/>
<path d="M101 63.2581C101 58.0137 94.6121 53.0437 84.8184 49.9617C87.0785 39.6989 86.074 31.5339 81.648 28.9198C80.6278 28.3066 79.435 28.0161 78.1323 28.0161V31.6146C78.8543 31.6146 79.435 31.7598 79.9215 32.0341C82.0561 33.2927 82.9821 38.0853 82.2601 44.2494C82.0874 45.7662 81.8049 47.3637 81.4596 48.9935C78.3834 48.2189 75.0247 47.6219 71.4933 47.2346C69.3744 44.2494 67.1771 41.5385 64.9641 39.1664C70.0807 34.2771 74.8834 31.5984 78.148 31.5984V28C73.8318 28 68.1816 31.1627 62.4686 36.6491C56.7556 31.195 51.1054 28.0645 46.7892 28.0645V31.663C50.0381 31.663 54.8565 34.3255 59.9731 39.1825C57.7758 41.5546 55.5785 44.2494 53.491 47.2346C49.9439 47.6219 46.5852 48.2189 43.509 49.0096C43.148 47.396 42.8812 45.8307 42.6928 44.3301C41.9552 38.1659 42.8655 33.3734 44.9843 32.0987C45.4552 31.8082 46.0673 31.6791 46.7892 31.6791V28.0807C45.4709 28.0807 44.278 28.3711 43.2422 28.9843C38.8318 31.5984 37.843 39.7473 40.1188 49.9778C30.3565 53.076 24 58.0299 24 63.2581C24 68.5024 30.3879 73.4724 40.1816 76.5545C37.9215 86.8172 38.926 94.9823 43.352 97.5964C44.3722 98.2095 45.565 98.5 46.8834 98.5C51.1996 98.5 56.8498 95.3373 62.5628 89.8509C68.2758 95.305 73.926 98.4355 78.2422 98.4355C79.5605 98.4355 80.7534 98.145 81.7892 97.5318C86.1996 94.9177 87.1883 86.7688 84.9126 76.5383C94.6435 73.4563 101 68.4863 101 63.2581ZM80.565 52.4951C79.9843 54.5767 79.2623 56.7228 78.4462 58.869C77.8027 57.5781 77.1278 56.2871 76.3901 54.9962C75.6682 53.7053 74.8991 52.4467 74.1301 51.2203C76.3588 51.5592 78.509 51.9787 80.565 52.4951ZM73.3767 69.6804C72.1525 71.8588 70.8969 73.9242 69.5942 75.8445C67.2556 76.0542 64.8857 76.1672 62.5 76.1672C60.13 76.1672 57.7601 76.0543 55.4372 75.8606C54.1345 73.9404 52.8632 71.8911 51.639 69.7288C50.4462 67.6149 49.3632 65.4688 48.3744 63.3065C49.3475 61.1442 50.4462 58.9819 51.6233 56.868C52.8475 54.6896 54.1031 52.6242 55.4058 50.7039C57.7444 50.4942 60.1144 50.3812 62.5 50.3812C64.87 50.3812 67.2399 50.4942 69.5628 50.6878C70.8655 52.608 72.1368 54.6574 73.361 56.8196C74.5538 58.9335 75.6368 61.0797 76.6256 63.2419C75.6368 65.4042 74.5538 67.5665 73.3767 69.6804ZM78.4462 67.5826C79.2937 69.7449 80.0157 71.9072 80.6121 74.0049C78.5561 74.5213 76.3901 74.957 74.1457 75.2958C74.9148 74.0533 75.6839 72.7786 76.4058 71.4715C77.1278 70.1806 77.8027 68.8735 78.4462 67.5826ZM62.5314 84.8002C61.0718 83.2511 59.6121 81.5245 58.1682 79.6365C59.5807 79.7011 61.0247 79.7495 62.4843 79.7495C63.9596 79.7495 65.4193 79.7172 66.8475 79.6365C65.435 81.5245 63.9753 83.2511 62.5314 84.8002ZM50.8543 75.2958C48.6256 74.957 46.4753 74.5374 44.4193 74.0211C45 71.9395 45.722 69.7933 46.5381 67.6472C47.1816 68.9381 47.8565 70.229 48.5942 71.5199C49.3318 72.8108 50.0852 74.0695 50.8543 75.2958ZM62.4529 41.716C63.9126 43.2651 65.3722 44.9916 66.8161 46.8796C65.4036 46.8151 63.9596 46.7667 62.5 46.7667C61.0247 46.7667 59.565 46.7989 58.1368 46.8796C59.5493 44.9916 61.009 43.2651 62.4529 41.716ZM50.8386 51.2203C50.0695 52.4628 49.3004 53.7376 48.5785 55.0446C47.8565 56.3355 47.1816 57.6265 46.5381 58.9174C45.6906 56.7551 44.9686 54.5928 44.3722 52.4951C46.4283 51.9949 48.5942 51.5592 50.8386 51.2203ZM36.6345 71.4231C31.0785 68.9865 27.4843 65.7915 27.4843 63.2581C27.4843 60.7247 31.0785 57.5135 36.6345 55.093C37.9843 54.496 39.4596 53.9635 40.9821 53.4633C41.8767 56.626 43.0538 59.9178 44.5135 63.2903C43.0695 66.6467 41.9081 69.9224 41.0292 73.069C39.4753 72.5688 38 72.0201 36.6345 71.4231ZM45.0785 94.482C42.9439 93.2234 42.0179 88.4309 42.7399 82.2668C42.9126 80.7499 43.1951 79.1524 43.5404 77.5227C46.6166 78.2972 49.9753 78.8943 53.5067 79.2815C55.6256 82.2668 57.8229 84.9777 60.0359 87.3497C54.9193 92.2391 50.1166 94.9177 46.852 94.9177C46.1457 94.9016 45.5493 94.7564 45.0785 94.482ZM82.3072 82.1861C83.0448 88.3502 82.1345 93.1427 80.0157 94.4175C79.5448 94.7079 78.9327 94.837 78.2108 94.837C74.9619 94.837 70.1435 92.1745 65.0269 87.3175C67.2242 84.9454 69.4215 82.2506 71.509 79.2654C75.0561 78.8781 78.4148 78.2811 81.491 77.4904C81.852 79.1202 82.1345 80.6854 82.3072 82.1861ZM88.3498 71.4231C87 72.0201 85.5247 72.5526 84.0022 73.0529C83.1076 69.8901 81.9305 66.5983 80.4709 63.2258C81.9148 59.8694 83.0762 56.5937 83.9552 53.4471C85.509 53.9474 86.9843 54.496 88.3655 55.093C93.9215 57.5296 97.5157 60.7247 97.5157 63.2581C97.5 65.7915 93.9058 69.0026 88.3498 71.4231Z" fill="#61DAFB"/>
<path d="M62.4843 70.6324C66.4457 70.6324 69.657 67.3308 69.657 63.258C69.657 59.1853 66.4457 55.8837 62.4843 55.8837C58.523 55.8837 55.3117 59.1853 55.3117 63.258C55.3117 67.3308 58.523 70.6324 62.4843 70.6324Z" fill="#61DAFB"/>
</svg>
