<svg width="126" height="126" viewBox="0 0 126 126" fill="none" xmlns="http://www.w3.org/2000/svg">
<rect width="126" height="126" rx="10" fill="#1F2233"/>
<g clip-path="url(#clip0)">
<path d="M92.5649 67.0432C89.6981 67.0593 87.2156 67.7422 85.1336 68.759C84.3649 67.2499 83.5961 65.9313 83.4681 64.9465C83.324 63.8028 83.1478 63.1037 83.324 61.7377C83.5 60.3714 84.3008 58.4333 84.3008 58.2745C84.2846 58.1315 84.1245 57.4326 82.475 57.4167C80.8256 57.4008 79.4 57.7344 79.2399 58.1633C79.0797 58.5922 78.7594 59.5771 78.5512 60.5938C78.2629 62.087 75.252 67.3768 73.5383 70.1568C72.9778 69.0766 72.4973 68.1235 72.401 67.3608C72.2571 66.2172 72.0807 65.5181 72.2571 64.1521C72.4332 62.7858 73.234 60.8479 73.234 60.6891C73.218 60.5461 73.0578 59.8471 71.4084 59.8313C69.7586 59.8154 68.3334 60.149 68.1732 60.5779C68.0131 61.0068 67.8369 62.0235 67.4846 63.0083C67.1481 63.9932 63.1442 72.8255 62.1031 75.1289C61.5746 76.3044 61.1103 77.2417 60.7739 77.8771C60.4375 78.5125 60.7578 77.9248 60.7258 77.9883C60.4375 78.5284 60.2774 78.8302 60.2774 78.8302V78.8463C60.0531 79.2434 59.8129 79.6245 59.7006 79.6245C59.6206 79.6245 59.4604 78.5602 59.7327 77.0989C60.3253 74.0328 61.7667 69.2515 61.7508 69.0767C61.7508 68.9973 62.0229 68.1552 60.8217 67.7265C59.6526 67.2976 59.2364 68.0124 59.1401 68.0124C59.044 68.0124 58.9639 68.2666 58.9639 68.2666C58.9639 68.2666 60.2612 62.8816 56.4815 62.8816C54.1112 62.8816 50.844 65.4391 49.2264 67.7743C48.2014 68.3303 46.0233 69.5056 43.7171 70.7607C42.8362 71.2373 41.9233 71.7456 41.0585 72.2063L40.8824 72.0154C36.302 67.1703 27.8297 63.7391 28.1821 57.2261C28.3102 54.8591 29.143 48.6162 44.4541 41.0547C56.9943 34.8594 67.0361 36.5591 68.7817 40.3399C71.2641 45.7409 63.4164 55.7805 50.3799 57.2261C45.415 57.782 42.8043 55.8758 42.1478 55.161C41.4592 54.4143 41.3631 54.3826 41.1068 54.5255C40.6904 54.7479 40.9467 55.4151 41.1068 55.8123C41.4912 56.813 43.0928 58.5922 45.8154 59.4818C48.2016 60.2602 54.0314 60.6891 61.0783 57.9886C68.974 54.9544 75.14 46.5352 73.3303 39.4979C71.4885 32.3336 59.5088 29.9826 48.1857 33.9698C41.443 36.3526 34.1399 40.0698 28.8867 44.9466C22.6407 50.7289 21.6477 55.7805 22.0641 57.8774C23.5217 65.3594 33.9157 70.2362 38.0797 73.8422C37.8715 73.9532 37.6793 74.0644 37.5032 74.1599C35.4211 75.1764 27.4934 79.2909 25.5075 83.6433C23.2653 88.5678 25.8598 92.1104 27.5895 92.587C32.9387 94.0643 38.416 91.4115 41.3789 87.043C44.3256 82.6745 43.9735 77.0034 42.6121 74.4141L42.5639 74.3188L44.1975 73.3656C45.2547 72.7461 46.2957 72.1742 47.2085 71.6816C46.6961 73.0637 46.3276 74.6999 46.1356 77.0827C45.9114 79.8787 47.0645 83.5004 48.586 84.9301C49.2586 85.5494 50.0594 85.5655 50.5559 85.5655C52.3176 85.5655 53.1184 84.1198 53.9992 82.3884C55.0883 80.2756 56.0492 77.8293 56.0492 77.8293C56.0492 77.8293 54.8481 84.4535 58.1313 84.4535C59.3324 84.4535 60.5336 82.9126 61.0781 82.1183V82.1342C61.0781 82.1342 61.1102 82.0866 61.1742 81.9754C61.2414 81.8768 61.3055 81.7762 61.3664 81.6737V81.6419C61.8469 80.8159 62.9199 78.9255 64.5215 75.7961C66.5874 71.7612 68.5735 66.7096 68.5735 66.7096C68.5735 66.7096 68.7656 67.9487 69.3582 69.982C69.7104 71.1895 70.4792 72.5078 71.0717 73.7945C70.5913 74.4617 70.303 74.8431 70.303 74.8431L70.319 74.859C69.9348 75.3674 69.5022 75.9076 69.0539 76.4476C67.4203 78.3856 65.4664 80.5938 65.2102 81.2292C64.9059 81.9757 64.9699 82.5317 65.5625 82.9766C65.9949 83.2943 66.7637 83.3577 67.5805 83.2943C69.0539 83.1989 70.0789 82.8337 70.5914 82.6111C71.3922 82.3252 72.3051 81.8963 73.186 81.2609C74.7875 80.0855 75.7645 78.4175 75.6684 76.1936C75.6203 74.9704 75.2199 73.7631 74.7235 72.6193C74.8676 72.4128 75.0119 72.2062 75.1559 71.9839C77.6863 68.3142 79.6403 64.2795 79.6403 64.2795C79.6403 64.2795 79.8324 65.5186 80.425 67.5519C80.7292 68.5844 81.3379 69.7125 81.8824 70.8244C79.5121 72.7466 78.0227 74.9705 77.5102 76.432C76.5653 79.1325 77.302 80.3557 78.6953 80.6416C79.3198 80.7687 80.2168 80.4828 80.8893 80.1968C81.7221 79.9268 82.7311 79.466 83.6602 78.783C85.2617 77.6075 86.7992 75.9713 86.7192 73.7633C86.6711 72.7466 86.3988 71.7458 86.0305 70.7927C88.0485 69.9666 90.6588 69.4901 93.9742 69.8872C101.101 70.7133 102.511 75.1294 102.238 76.9721C101.966 78.815 100.477 79.8315 99.9801 80.1492C99.4836 80.451 99.3235 80.5624 99.3715 80.7846C99.4356 81.1184 99.6598 81.1023 100.092 81.0389C100.685 80.9435 103.84 79.5298 103.968 76.1305C104.16 71.7614 99.9801 66.9957 92.5649 67.0432V67.0432ZM37.5992 85.4227C35.2449 87.9802 31.9297 88.9492 30.5203 88.1232C28.9989 87.2495 29.5913 83.4847 32.4903 80.7682C34.252 79.1162 36.5422 77.5912 38.0477 76.6539C38.384 76.4474 38.8965 76.1457 39.5051 75.7802C39.6012 75.7168 39.6653 75.6849 39.6653 75.6849C39.7774 75.6214 39.9055 75.5419 40.0336 75.4625C41.1067 79.3386 40.0817 82.738 37.5992 85.4227V85.4227ZM54.816 73.8104C53.9992 75.7961 52.2696 80.8953 51.2285 80.6094C50.3315 80.3711 49.7871 76.511 51.0522 72.6985C51.6928 70.7762 53.0542 68.4888 53.8549 67.5991C55.1524 66.1694 56.5616 65.6928 56.9141 66.2806C57.3305 67.0432 55.3285 72.5714 54.816 73.8104ZM69.0219 80.5458C68.6696 80.7207 68.3492 80.8477 68.2051 80.7525C68.093 80.689 68.3491 80.4507 68.3491 80.4507C68.3491 80.4507 70.1268 78.5603 70.8315 77.6866C71.2319 77.1785 71.7124 76.5907 72.2249 75.9234V76.114C72.225 78.4013 70.0149 79.9263 69.0219 80.5458ZM79.9764 78.0677C79.7202 77.8771 79.7524 77.2893 80.617 75.4466C80.9535 74.7159 81.7221 73.4927 83.0514 72.3331C83.2116 72.8096 83.3078 73.2702 83.2917 73.6992C83.2758 76.5586 81.2258 77.6229 79.9764 78.0677Z" fill="#CF649A"/>
</g>
<defs>
<clipPath id="clip0">
<rect width="82" height="61" fill="white" transform="translate(22 32)"/>
</clipPath>
</defs>
</svg>
