<svg width="126" height="126" viewBox="0 0 126 126" fill="none" xmlns="http://www.w3.org/2000/svg">
<rect width="126" height="126" rx="10" fill="#1F2233"/>
<path d="M63 36.0718C51.0001 36.0718 43.4999 42.056 40.5 54.0239C45 48.0398 50.2499 45.7958 56.25 47.2919C59.6732 48.1453 62.12 50.6225 64.8285 53.3641C69.2406 57.8307 74.3467 63 85.5 63C97.4999 63 105 57.0158 108 45.0479C103.5 51.032 98.2501 53.276 92.25 51.7799C88.8268 50.9265 86.38 48.4493 83.6715 45.7078C79.2594 41.2411 74.1533 36.0718 63 36.0718ZM40.5 63C28.5001 63 20.9999 68.9842 18 80.9521C22.5 74.968 27.7499 72.724 33.75 74.2201C37.1732 75.0735 39.62 77.5507 42.3285 80.2922C46.7406 84.7589 51.8467 89.9282 63 89.9282C74.9999 89.9282 82.5001 83.944 85.5 71.9761C81 77.9602 75.7501 80.2042 69.75 78.7081C66.3268 77.8547 63.88 75.3775 61.1715 72.6359C56.7594 68.1693 51.6533 63 40.5 63Z" fill="url(#paint0_linear)"/>
<defs>
<linearGradient id="paint0_linear" x1="15.4998" y1="53.3059" x2="93.1261" y2="98.1832" gradientUnits="userSpaceOnUse">
<stop stop-color="#2298BD"/>
<stop offset="1" stop-color="#0ED7B5"/>
</linearGradient>
</defs>
</svg>
