<svg width="126" height="126" viewBox="0 0 126 126" fill="none" xmlns="http://www.w3.org/2000/svg">
<g clip-path="url(#clip0_201_70)">
<path d="M116 0H10C4.47715 0 0 4.47715 0 10V116C0 121.523 4.47715 126 10 126H116C121.523 126 126 121.523 126 116V10C126 4.47715 121.523 0 116 0Z" fill="#1F2233"/>
<g clip-path="url(#clip1_201_70)">
<path d="M89.5547 30H36.4453C32.8857 30 30 32.8857 30 36.4453V89.5547C30 93.1143 32.8857 96 36.4453 96H89.5547C93.1143 96 96 93.1143 96 89.5547V36.4453C96 32.8857 93.1143 30 89.5547 30Z" fill="#3178C6"/>
<path d="M89.5547 30H36.4453C32.8857 30 30 32.8857 30 36.4453V89.5547C30 93.1143 32.8857 96 36.4453 96H89.5547C93.1143 96 96 93.1143 96 89.5547V36.4453C96 32.8857 93.1143 30 89.5547 30Z" fill="#3178C6"/>
<path fill-rule="evenodd" clip-rule="evenodd" d="M70.8554 82.5195V88.9727C71.9045 89.5105 73.1452 89.9137 74.5776 90.1826C76.01 90.4515 77.5196 90.5859 79.1067 90.5859C80.6535 90.5859 82.1227 90.4381 83.5148 90.1422C84.9068 89.8465 86.1275 89.3591 87.1765 88.6802C88.2255 88.0014 89.0561 87.114 89.668 86.0183C90.2799 84.9226 90.5859 83.5682 90.5859 81.9549C90.5859 80.7852 90.4111 79.7601 90.0614 78.8796C89.7117 77.999 89.2074 77.2159 88.5483 76.5303C87.8893 75.8446 87.0992 75.2295 86.1779 74.685C85.2566 74.1405 84.2176 73.6263 83.0609 73.1423C82.2136 72.7927 81.4537 72.4533 80.7812 72.124C80.1087 71.7945 79.5371 71.4584 79.0664 71.1157C78.5956 70.7728 78.2325 70.4098 77.977 70.0267C77.7215 69.6434 77.5936 69.2099 77.5936 68.7259C77.5936 68.2823 77.7079 67.8823 77.9366 67.526C78.1653 67.1697 78.4881 66.864 78.905 66.6085C79.322 66.3531 79.833 66.1547 80.4382 66.0136C81.0435 65.8724 81.7159 65.8019 82.4557 65.8019C82.9936 65.8019 83.5618 65.8423 84.1603 65.9228C84.7589 66.0035 85.3607 66.1279 85.9661 66.2959C86.5713 66.464 87.1596 66.6758 87.7313 66.9311C88.3029 67.1866 88.8308 67.4823 89.3149 67.8185V61.7888C88.3332 61.4124 87.2605 61.1334 86.0972 60.9519C84.9338 60.7704 83.5988 60.6797 82.0926 60.6797C80.5592 60.6797 79.1067 60.8444 77.7349 61.1738C76.3631 61.5031 75.156 62.0173 74.1135 62.7164C73.0712 63.4156 72.2475 64.3062 71.6423 65.3885C71.037 66.4707 70.7344 67.7646 70.7344 69.2704C70.7344 71.1929 71.2892 72.8331 72.3988 74.191C73.5083 75.5488 75.1929 76.6982 77.4525 77.6394C78.3401 78.0024 79.1673 78.3585 79.9339 78.7081C80.7005 79.0577 81.363 79.4207 81.921 79.7971C82.4792 80.1735 82.9196 80.5836 83.2425 81.0273C83.5653 81.4708 83.7267 81.975 83.7267 82.5397C83.7267 82.9565 83.6258 83.343 83.424 83.6992C83.2223 84.0555 82.9163 84.3647 82.5061 84.6269C82.0959 84.8891 81.5848 85.094 80.9729 85.2419C80.3608 85.3899 79.6448 85.4637 78.8243 85.4637C77.4255 85.4637 76.0403 85.2184 74.6683 84.7277C73.2965 84.237 72.0255 83.501 70.8554 82.5195ZM60.0068 66.6199H68.2852V61.3242H45.2109V66.6199H53.4488V90.1992H60.0068V66.6199Z" fill="white"/>
</g>
</g>
<defs>
<clipPath id="clip0_201_70">
<rect width="126" height="126" fill="white"/>
</clipPath>
<clipPath id="clip1_201_70">
<rect width="66" height="66" fill="white" transform="translate(30 30)"/>
</clipPath>
</defs>
</svg>
