<svg width="126" height="126" viewBox="0 0 126 126" fill="none" xmlns="http://www.w3.org/2000/svg">
<g clip-path="url(#clip0_201_29)">
<path d="M116 0H10C4.47715 0 0 4.47715 0 10V116C0 121.523 4.47715 126 10 126H116C121.523 126 126 121.523 126 116V10C126 4.47715 121.523 0 116 0Z" fill="#1F2233"/>
<path d="M63 97.2C81.8882 97.2 97.2001 81.8881 97.2001 63C97.2001 44.1119 81.8882 28.8 63 28.8C44.1119 28.8 28.8 44.1119 28.8 63C28.8 81.8881 44.1119 97.2 63 97.2Z" fill="#F47421"/>
<path d="M63 79.587C72.1607 79.587 79.587 72.1607 79.587 63C79.587 53.8392 72.1607 46.413 63 46.413C53.8392 46.413 46.413 53.8392 46.413 63C46.413 72.1607 53.8392 79.587 63 79.587Z" stroke="white" stroke-width="8.55"/>
<path d="M39.744 69.4126C43.2856 69.4126 46.1566 66.5416 46.1566 63C46.1566 59.4584 43.2856 56.5874 39.744 56.5874C36.2024 56.5874 33.3314 59.4584 33.3314 63C33.3314 66.5416 36.2024 69.4126 39.744 69.4126Z" fill="#F47421"/>
<path d="M75.92 63H83.52Z" fill="black"/>
<path d="M75.92 63H83.52" stroke="#F47421" stroke-width="3.2378"/>
<path d="M39.744 67.5657C42.2656 67.5657 44.3097 65.5215 44.3097 63C44.3097 60.4785 42.2656 58.4343 39.744 58.4343C37.2225 58.4343 35.1783 60.4785 35.1783 63C35.1783 65.5215 37.2225 67.5657 39.744 67.5657Z" fill="white"/>
<path d="M69.0745 39.6534C67.3037 42.7205 68.3546 46.6424 71.4217 48.4132C74.4888 50.1839 78.4106 49.1331 80.1814 46.066C81.9522 42.9989 80.9013 39.077 77.8342 37.3063C74.7672 35.5355 70.8453 36.5863 69.0745 39.6534Z" fill="#F47421"/>
<path d="M56.5399 74.189L52.7399 80.7708Z" fill="black"/>
<path d="M56.5399 74.189L52.7399 80.7708" stroke="#F47421" stroke-width="3.2378"/>
<path d="M70.674 40.5769C69.4132 42.7606 70.1614 45.5529 72.3451 46.8137C74.5288 48.0745 77.3211 47.3263 78.5819 45.1425C79.8427 42.9588 79.0945 40.1665 76.9108 38.9057C74.727 37.645 71.9347 38.3932 70.674 40.5769Z" fill="white"/>
<path d="M80.1815 79.934C78.4107 76.8669 74.4888 75.816 71.4218 77.5868C68.3547 79.3576 67.3038 83.2795 69.0746 86.3466C70.8454 89.4137 74.7672 90.4645 77.8343 88.6937C80.9014 86.923 81.9523 83.0011 80.1815 79.934Z" fill="#F47421"/>
<path d="M56.54 51.8109L52.74 45.2292Z" fill="black"/>
<path d="M56.54 51.8109L52.74 45.2292" stroke="#F47421" stroke-width="3.2378"/>
<path d="M78.582 80.8574C77.3213 78.6737 74.5289 77.9255 72.3452 79.1863C70.1615 80.4471 69.4133 83.2394 70.6741 85.4231C71.9349 87.6068 74.7272 88.355 76.9109 87.0942C79.0946 85.8335 79.8428 83.0412 78.582 80.8574Z" fill="white"/>
</g>
<defs>
<clipPath id="clip0_201_29">
<rect width="126" height="126" fill="white"/>
</clipPath>
</defs>
</svg>
