<svg width="126" height="126" viewBox="0 0 126 126" fill="none" xmlns="http://www.w3.org/2000/svg">
<rect width="126" height="126" rx="10" fill="#1F2233"/>
<g clip-path="url(#clip0)">
<path d="M28.0863 52.6813C28.0863 52.6813 26.3582 51.433 28.4319 49.7661L33.2633 45.4366C33.2633 45.4366 34.6457 43.979 36.1074 45.249L80.6915 79.077V95.2983C80.6915 95.2983 80.6699 97.8455 77.4082 97.5641L28.0863 52.6813Z" fill="#2489CA"/>
<path d="M39.5779 63.1371L28.0863 73.6074C28.0863 73.6074 26.9054 74.4877 28.0863 76.0607L33.4217 80.9242C33.4217 80.9242 34.6889 82.288 36.561 80.7366L48.7439 71.4787L39.5779 63.1371Z" fill="#1070B3"/>
<path d="M59.7531 63.2237L80.8283 47.0962L80.6915 30.9615C80.6915 30.9615 79.7915 27.4402 76.789 29.273L48.7439 54.8533L59.7531 63.2237Z" fill="#0877B9"/>
<path d="M77.4082 97.5857C78.6322 98.8413 80.1155 98.43 80.1155 98.43L96.5393 90.3193C98.6418 88.8834 98.3466 87.101 98.3466 87.101V38.6681C98.3466 36.5394 96.1721 35.8034 96.1721 35.8034L81.9372 28.9266C78.8266 27 76.789 29.273 76.789 29.273C76.789 29.273 79.4099 27.3824 80.6915 30.9615V95.0024C80.6915 95.4426 80.5979 95.8755 80.4107 96.2652C80.0363 97.0229 79.2227 97.73 77.2714 97.4342L77.4082 97.5857Z" fill="#3C99D4"/>
</g>
<defs>
<clipPath id="clip0">
<rect width="73" height="71.8413" fill="white" transform="translate(26 27)"/>
</clipPath>
</defs>
</svg>
