<svg width="126" height="126" viewBox="0 0 126 126" fill="none" xmlns="http://www.w3.org/2000/svg">
<rect width="126" height="126" rx="10" fill="#1F2233"/>
<path fill-rule="evenodd" clip-rule="evenodd" d="M62.4801 26.0006C71.9535 26.0006 81.4272 26.0006 90.9006 26C92.0896 26 93.2671 26.1038 94.4078 26.4538C96.8812 27.2121 98.1907 28.9964 98.7039 31.4553C98.9078 32.4305 98.9656 33.4244 98.9676 34.4182C98.9827 41.0926 98.9939 47.7675 98.9944 54.4424C98.995 66.599 98.9964 78.7557 98.9716 90.9121C98.9682 92.6138 98.8781 94.3341 98.043 95.8844C97.1167 97.6036 95.8485 98.9643 93.9231 99.5626C93.5753 99.6707 93.2121 99.7938 92.8554 99.7938C92.0337 99.7943 91.2339 99.9991 90.4148 99.9991C71.8634 99.9977 53.3123 100.009 34.7608 99.9791C33.252 99.9762 31.7187 99.8658 30.2854 99.2482C30.0003 99.1249 29.7124 99.0216 29.4615 98.8295C27.6367 97.4306 26.3976 95.6859 26.1319 93.3251C26.0364 92.4738 26.0059 91.6271 26.0059 90.7755C26.0087 71.8591 26.0105 52.9426 26.0201 34.0261C26.021 32.9288 26.0321 31.8124 26.3677 30.7621C27.2612 27.9636 29.2165 26.4357 32.115 26.1253C32.7887 26.0531 33.4681 26.0063 34.145 26.0057C43.5894 25.998 53.0348 26.0006 62.4798 26.0006H62.4801Z" fill="#FB7A24"/>
<path fill-rule="evenodd" clip-rule="evenodd" d="M62.721 73.0712C62.5137 74.3487 62.368 75.5034 61.9118 76.5675C59.7763 81.5536 56.1366 84.592 50.6801 85.1969C44.2306 85.9116 38.2734 81.907 36.4823 75.6876C35.8331 73.4337 35.8982 71.136 36.1337 68.842C36.3848 66.3908 37.1028 64.0664 38.2235 61.8734C38.3841 61.5599 38.3809 61.3233 38.1802 61.0195C36.4593 58.4157 35.7915 55.5392 36.0339 52.4344C36.1636 50.7748 36.5642 49.1875 37.312 47.7006C39.5043 43.3453 44.3172 39.649 50.7634 40.2628C56.4314 40.802 61.6812 45.7207 62.5006 51.2524C62.5419 51.53 62.6195 51.8025 62.7101 52.2121C62.8459 51.4703 62.9439 50.8583 63.0708 50.2519C64.1266 45.2265 69.0165 39.9679 75.9476 39.9028C82.9728 39.8374 88.1753 45.3803 89.1569 50.5281C89.5717 52.7037 89.4996 54.8772 89.1575 57.0499C88.8188 59.2115 88.1784 61.3141 87.2552 63.2954C87.0511 63.734 87.0722 64.0498 87.3336 64.4571C88.8467 66.8159 89.5144 69.4053 89.4289 72.2173C89.2498 78.0848 85.1245 83.3466 79.4494 84.7227C71.5261 86.6436 65.4524 81.8766 63.4084 76.1092C63.0748 75.1704 62.9171 74.1904 62.7213 73.0712H62.721ZM77.116 62.7628C77.2007 62.431 77.4562 62.2322 77.6398 61.9867C79.6264 59.3307 80.6714 56.3641 80.4382 53.0235C80.2682 50.5855 78.275 48.868 75.8621 48.9589C73.4475 49.0499 71.6282 50.9231 71.594 53.3536C71.5914 53.5527 71.6034 53.752 71.5911 53.9496C71.4249 56.5399 70.0042 57.9588 67.8513 58.1172C67.4581 58.1461 67.0638 58.1814 66.6701 58.1826C63.876 58.1889 61.0821 58.1877 58.2878 58.1851C57.0675 58.184 55.8575 58.3176 54.6953 58.6785C49.2705 60.3621 46.1072 64.0942 45.0597 69.6566C44.8521 70.7571 44.6654 71.8992 45.024 73.0296C45.5387 74.651 46.4981 75.8568 48.1962 76.2601C49.9562 76.678 51.4892 76.2156 52.7072 74.8248C53.4944 73.9256 53.7428 72.8572 53.8015 71.6847C53.9538 68.6688 55.5863 67.1612 58.3091 67.1839C62.4858 67.2189 66.6629 67.1913 70.8401 67.1945C71.5814 67.1948 71.5883 67.2048 71.592 67.9425C71.5991 69.3049 71.5575 70.6693 71.6096 72.0303C71.6946 74.2523 73.6379 76.0992 75.8909 76.1643C78.214 76.2311 80.2848 74.5024 80.4362 72.246C80.5667 70.2927 80.5585 68.3277 80.431 66.373C80.3324 64.86 79.5187 63.7816 78.1399 63.1558C77.8091 63.006 77.4613 62.8939 77.116 62.7628ZM50.9336 58.1782C51.832 58.1782 52.5653 58.1699 53.298 58.182C53.6612 58.1877 53.7958 58.0305 53.793 57.6723C53.781 56.2545 53.8537 54.8322 53.7639 53.4196C53.6453 51.5561 52.6602 50.2089 50.9356 49.5294C49.1673 48.8327 47.549 49.2303 46.1805 50.5442C44.8059 51.8644 44.6226 53.479 45.1036 55.2458C45.5455 56.8698 46.589 57.7922 48.2307 58.071C49.1841 58.2325 50.1429 58.155 50.9336 58.1782V58.1782Z" fill="white"/>
</svg>
