<svg width="126" height="126" viewBox="0 0 126 126" fill="none" xmlns="http://www.w3.org/2000/svg">
<rect width="126" height="126" rx="10" fill="#1F2233"/>
<g clip-path="url(#clip0)">
<path d="M82.1981 92.4481H42.8019C36.8288 92.4481 32 87.6216 32 81.6511V43.797C32 37.8266 36.8288 33 42.8019 33H82.1981C88.1712 33 93 37.8266 93 43.797V81.6511C93 87.6216 88.1712 92.4481 82.1981 92.4481Z" fill="#FF26BE"/>
<path d="M81.2319 89.9068H43.7681C38.6856 89.9068 34.5425 85.7656 34.5425 80.6853V44.7628C34.5425 39.6826 38.6856 35.5413 43.7681 35.5413H81.2075C86.3169 35.5413 90.4331 39.6826 90.4331 44.7628V80.6609C90.4575 85.7656 86.3144 89.9068 81.2319 89.9068Z" fill="#2E001F"/>
<path d="M56.1194 60.8181L63.2369 74.4857C63.3638 74.6881 63.2881 74.8929 63.0832 74.8929H58.6595C58.3789 74.8929 58.252 74.8173 58.1251 74.5637C56.4976 71.2102 54.8457 67.8567 53.1426 64.2496H53.0914C51.5664 67.6543 49.8877 71.237 48.2626 74.5905C48.1357 74.793 48.0089 74.871 47.8039 74.871H43.6144C43.3607 74.871 43.3338 74.6686 43.4631 74.5149L50.4269 61.2522L43.6925 47.8383C43.5388 47.6358 43.6925 47.4822 43.8438 47.4822H48.2163C48.47 47.4822 48.5725 47.5334 48.6725 47.7626C50.2732 51.1161 51.9007 54.5721 53.4257 57.9499H53.4769C54.9507 54.5964 56.5781 51.1161 58.1544 47.787C58.2813 47.5846 58.3569 47.4578 58.6131 47.4578H62.705C62.9075 47.4578 62.9856 47.6114 62.8587 47.8139L56.1194 60.8181ZM64.4837 64.9593C64.4837 59.0401 68.4243 54.416 74.6756 54.416C75.21 54.416 75.4881 54.416 75.9981 54.4672V47.7358C75.9981 47.5822 76.125 47.4822 76.2519 47.4822H80.2681C80.4706 47.4822 80.5219 47.5578 80.5219 47.6846V71.0078C80.5219 71.6931 80.5219 72.5565 80.6487 73.4979C80.6487 73.6516 80.5975 73.7003 80.4462 73.7784C78.3112 74.7954 76.0737 75.2515 73.9387 75.2515C68.4219 75.2734 64.4813 71.8712 64.4837 64.9593ZM75.9957 58.4572C75.6394 58.3036 75.1319 58.2036 74.5219 58.2036C71.3182 58.2036 69.0831 60.6669 69.0831 64.7593C69.0831 69.4347 71.3719 71.3151 74.2437 71.3151C74.8537 71.3151 75.515 71.2395 75.9981 71.0346V58.4572H75.9957Z" fill="#FFD9F2"/>
</g>
<defs>
<clipPath id="clip0">
<rect width="61" height="59.4481" fill="white" transform="translate(32 33)"/>
</clipPath>
</defs>
</svg>
